<svg id="Слой_1" data-name="Слой 1" xmlns="http://www.w3.org/2000/svg" xmlns:xlink="http://www.w3.org/1999/xlink" viewBox="0 0 1726.57 419">
  <defs>
    <style>
      .cls-1 {
        fill: url(#Безымянный_градиент);
      }

      .cls-2 {
        fill: url(#Безымянный_градиент_2);
      }

      .cls-3 {
        fill: url(#Безымянный_градиент_3);
      }

      .cls-4 {
        fill: url(#Безымянный_градиент_4);
      }

      .cls-5 {
        fill: url(#Безымянный_градиент_5);
      }

      .cls-6 {
        fill: #00e7e1;
      }
    </style>
    <linearGradient id="Безымянный_градиент" data-name="Безымянный градиент" x1="41.14" y1="92.63" x2="41.59" y2="52.95" gradientTransform="matrix(1, 0, 0, -1, 0, 482.72)" gradientUnits="userSpaceOnUse">
      <stop offset="0" stop-color="aqua"/>
      <stop offset="1" stop-color="#0000b7"/>
    </linearGradient>
    <linearGradient id="Безымянный_градиент_2" data-name="Безымянный градиент 2" x1="128.77" y1="180.7" x2="128.77" y2="72.5" gradientTransform="matrix(1, 0, 0, -1, 0, 482.72)" gradientUnits="userSpaceOnUse">
      <stop offset="0" stop-color="aqua"/>
      <stop offset="0.08" stop-color="#00f3fc"/>
      <stop offset="0.23" stop-color="#00d4f3"/>
      <stop offset="0.43" stop-color="#00a2e5"/>
      <stop offset="0.68" stop-color="#005cd1"/>
      <stop offset="0.95" stop-color="#0004b8"/>
      <stop offset="0.96" stop-color="#0000b7"/>
    </linearGradient>
    <linearGradient id="Безымянный_градиент_3" data-name="Безымянный градиент 3" x1="216.2" y1="276.4" x2="216.2" y2="62.63" gradientTransform="matrix(1, 0, 0, -1, 0.01, 482.72)" gradientUnits="userSpaceOnUse">
      <stop offset="0" stop-color="aqua"/>
      <stop offset="0.96" stop-color="#0000b7"/>
    </linearGradient>
    <linearGradient id="Безымянный_градиент_4" data-name="Безымянный градиент 4" x1="306" y1="365.51" x2="306" y2="70.18" gradientTransform="matrix(1, 0, 0, -1, 0, 482.72)" xlink:href="#Безымянный_градиент_3"/>
    <linearGradient id="Безымянный_градиент_5" data-name="Безымянный градиент 5" x1="395.82" y1="449.73" x2="395.82" y2="55.95" gradientTransform="matrix(1, 0, 0, -1, 0, 482.72)" xlink:href="#Безымянный_градиент_3"/>
  </defs>
  <g>
    <g>
      <path class="cls-1" d="M9.07,426.63V387.14a4.87,4.87,0,0,1,4.87-4.87H68.73a4.87,4.87,0,0,1,4.87,4.87v39.49H9.07Z" transform="translate(-9.07 -8.48)"/>
      <path class="cls-2" d="M96.51,426.13V293.39a4.87,4.87,0,0,1,4.87-4.87h54.79a4.87,4.87,0,0,1,4.87,4.87V426.13H96.51Z" transform="translate(-9.07 -8.48)"/>
      <path class="cls-3" d="M184,425.62V199.77a4.87,4.87,0,0,1,4.87-4.87h54.79a4.87,4.87,0,0,1,4.87,4.87V425.62H184Z" transform="translate(-9.07 -8.48)"/>
      <path class="cls-4" d="M273.74,427.47V106.14a4.87,4.87,0,0,1,4.87-4.87H333.4a4.87,4.87,0,0,1,4.87,4.87V427.47H273.74Z" transform="translate(-9.07 -8.48)"/>
      <path class="cls-5" d="M363.56,427V13.35a4.87,4.87,0,0,1,4.87-4.87h54.79a4.87,4.87,0,0,1,4.87,4.87V427H363.56Z" transform="translate(-9.07 -8.48)"/>
    </g>
    <g>
      <path class="cls-6" d="M467.07,236.14V215.81H580.88v20.33H534.57V423.52H513.39V236.14Z" transform="translate(-9.07 -8.48)"/>
      <path class="cls-6" d="M736.91,372.55l16.66,8.75q-8.19,16.08-18.94,26a75.34,75.34,0,0,1-24.16,15,84.45,84.45,0,0,1-30.39,5.17q-37.59,0-58.8-24.64t-21.19-55.7A82.11,82.11,0,0,1,618,295q22.74-29.1,60.92-29.09,39.28,0,62.75,29.79,16.68,21,17,52.53H620.42q.55,26.76,17.1,43.88t40.86,17.12a65.89,65.89,0,0,0,22.83-4.08,60,60,0,0,0,18.88-10.83Q727.86,387.6,736.91,372.55Zm0-41.38q-4-15.81-11.52-25.27a54.55,54.55,0,0,0-20-15.25,61.06,61.06,0,0,0-26.15-5.79q-22.62,0-38.88,14.54-11.88,10.59-18,31.77Z" transform="translate(-9.07 -8.48)"/>
      <path class="cls-6" d="M795.51,269.89h19.77v27.58q11.85-15.81,26.26-23.66A64.5,64.5,0,0,1,872.89,266a54.5,54.5,0,0,1,30.57,8.75,52.17,52.17,0,0,1,19.7,23.58q6.35,14.83,6.35,46.18v79.07H909.74V350.24q0-26.55-2.2-35.45-3.43-15.24-13.18-22.94T869,284.15A48.78,48.78,0,0,0,836.81,296a55.59,55.59,0,0,0-18.71,29.37q-2.82,11.44-2.82,41.8v56.34H795.51Z" transform="translate(-9.07 -8.48)"/>
      <path class="cls-6" d="M1125.22,210.59V423.52h-19.49v-26.4q-12.42,15.11-27.88,22.73a75.46,75.46,0,0,1-33.82,7.62q-32.62,0-55.71-23.65t-23.08-57.54q0-33.18,23.29-56.76t56.11-23.58a72.35,72.35,0,0,1,34.24,8q15.33,8,26.9,24.14V210.59Zm-79,74.41a59.58,59.58,0,0,0-52.68,30.89,62.23,62.23,0,0,0,.07,62.06A60.58,60.58,0,0,0,1016,401a58.44,58.44,0,0,0,30.11,8.25,61.88,61.88,0,0,0,30.75-8.18,57.34,57.34,0,0,0,22.36-22.14,63.31,63.31,0,0,0,7.82-31.46q0-26.66-17.56-44.57T1046.22,285Z" transform="translate(-9.07 -8.48)"/>
      <path class="cls-6" d="M1299.32,372.55,1316,381.3q-8.19,16.08-18.94,26a75.34,75.34,0,0,1-24.16,15q-13.43,5.16-30.39,5.15-37.59,0-58.79-24.64t-21.2-55.7a82,82,0,0,1,18-52.1q22.74-29.1,60.91-29.09,39.28,0,62.75,29.79,16.68,21,17,52.53H1182.83q.54,26.76,17.1,43.88t40.86,17.12a65.89,65.89,0,0,0,22.83-4.08,60,60,0,0,0,18.88-10.83Q1290.27,387.6,1299.32,372.55Zm0-41.38q-4-15.81-11.52-25.27a54.55,54.55,0,0,0-20-15.25,61.06,61.06,0,0,0-26.15-5.79q-22.62,0-38.88,14.54-11.88,10.59-18,31.77Z" transform="translate(-9.07 -8.48)"/>
      <path class="cls-6" d="M1350.44,269.89h20.2v22.45q9-13.26,19.06-19.84a37.67,37.67,0,0,1,20.9-6.56q8.19,0,17.51,5.22l-10.31,16.66q-6.21-2.67-10.45-2.68-9.9,0-19.06,8.12t-14,25.21q-3.68,13.13-3.67,53.09v52h-20.18Z" transform="translate(-9.07 -8.48)"/>
      <path class="cls-6" d="M1546,210.59h4.21V355.47h25.13v19.77h-25.13v48.29h-20.6v-48.3h-99.4Zm-16.39,144.88V268.22l-61.55,87.25Z" transform="translate(-9.07 -8.48)"/>
      <path class="cls-6" d="M1706.3,210.59h4.21V355.47h25.13v19.77h-25.13v48.29h-20.62v-48.3h-99.41Zm-16.41,144.88V268.22l-61.54,87.25Z" transform="translate(-9.07 -8.48)"/>
    </g>
  </g>
</svg>
