<svg width="418" height="511" viewBox="0 0 418 511" fill="none" xmlns="http://www.w3.org/2000/svg">
<path d="M277.1 326.428C273.813 330.445 269.471 333.387 264.094 335.234C258.067 337.303 253.441 338.703 249.849 339.617C249.525 337.405 249.078 335.193 248.47 333.022C247.759 330.465 246.725 327.706 245.467 324.946H278.236C277.932 325.372 277.607 325.798 277.283 326.204C277.201 326.245 277.141 326.326 277.1 326.428Z" fill="white" stroke="black"/>
<path d="M162.374 338.135C161.542 339.231 160.751 340.266 160 341.28C154.826 337.182 149.124 331.683 145.005 324.946H171.688C168.441 330.161 165.154 334.463 162.374 338.135Z" fill="white" stroke="black"/>
<path d="M245.082 324.135H278.785C278.603 324.419 278.42 324.683 278.237 324.946H245.468C245.346 324.683 245.204 324.399 245.082 324.135Z" fill="black" stroke="black"/>
<path d="M378.758 324.946H302.87C302.87 324.683 302.85 324.398 302.85 324.135H378.352V176.113H320.158L320.524 175.301H366.726H378.758C378.981 175.301 379.164 175.484 379.164 175.707V189.261V324.54C379.164 324.764 378.981 324.946 378.758 324.946Z" fill="black" stroke="black"/>
<path d="M171.688 324.946H145.006C144.843 324.683 144.681 324.399 144.519 324.135H172.195C172.013 324.399 171.85 324.683 171.688 324.946Z" fill="black" stroke="black"/>
<path d="M99.496 324.135H107.795C107.775 324.399 107.775 324.683 107.754 324.946H99.496C99.496 324.662 99.496 324.399 99.496 324.135Z" fill="black" stroke="black"/>
<path d="M113.252 176.113H50.2895V324.135H98.6831C98.6831 324.398 98.6831 324.683 98.6628 324.946H49.8633C49.6401 324.946 49.4575 324.764 49.4575 324.54V175.707C49.4575 175.484 49.6401 175.301 49.8633 175.301H112.866L113.252 176.113Z" fill="black" stroke="black"/>
<path d="M264.215 225.988H170.289C170.066 225.988 169.883 225.805 169.883 225.582V207.767H170.695V225.176H263.809V207.767H264.621V225.582C264.621 225.805 264.438 225.988 264.215 225.988Z" fill="black" stroke="black"/>
<path d="M228.181 215.7H206.226C206.084 215.7 205.942 215.619 205.881 215.497L201.498 207.746H202.432L206.49 214.889H227.958L232.016 207.746H232.949L228.566 215.497C228.465 215.639 228.343 215.7 228.181 215.7Z" fill="black" stroke="black"/>
<path d="M91.4178 261.7V220.753C91.4178 220.53 91.6004 220.347 91.8236 220.347H117.207C117.431 220.347 117.613 220.53 117.613 220.753V261.7C117.613 261.923 117.431 262.105 117.207 262.105H91.8236C91.6004 262.105 91.4178 261.923 91.4178 261.7ZM116.802 221.159H92.2294V261.294H116.802V221.159Z" fill="black" stroke="black"/>
<path d="M315.897 225.44H358.102C358.325 225.44 358.508 225.623 358.508 225.846V288.057C358.508 288.281 358.325 288.463 358.102 288.463H315.897C315.674 288.463 315.491 288.281 315.491 288.057V225.846C315.491 225.623 315.674 225.44 315.897 225.44ZM316.303 287.631H357.696V226.231H316.303V287.631Z" fill="black" stroke="black"/>
<path d="M322.672 282.173H351.404V282.194H322.672V282.173Z" fill="black" stroke="black"/>
<path d="M355.323 282.985H351.914C352.076 282.944 352.218 282.782 352.218 282.599V282.173H354.917V228.707H319.205V282.173H321.843V282.599C321.843 282.782 321.965 282.944 322.147 282.985H318.799C318.576 282.985 318.393 282.802 318.393 282.579V228.301C318.393 228.078 318.576 227.895 318.799 227.895H355.323C355.546 227.895 355.729 228.078 355.729 228.301V282.579C355.729 282.802 355.546 282.985 355.323 282.985Z" fill="black" stroke="black"/>
<path d="M93.9548 222.356H115.26C115.483 222.356 115.666 222.538 115.666 222.762V257.702C115.666 257.926 115.483 258.108 115.26 258.108H93.9548C93.7316 258.108 93.549 257.926 93.549 257.702V222.762C93.549 222.538 93.7113 222.356 93.9548 222.356ZM94.3606 257.297H96.2071V257.54C96.2071 257.763 96.3897 257.946 96.6129 257.946H112.379C112.602 257.946 112.785 257.763 112.785 257.54V257.297H114.854V223.167H94.3606V257.297Z" fill="black" stroke="black"/>
<path d="M211.053 286.556H277.932C278.074 286.84 278.236 287.104 278.398 287.368H211.784C211.54 287.063 211.297 286.8 211.053 286.556Z" fill="black" stroke="black"/>
<path d="M290.554 269.836V252.63H174.835V286.556H205.738C205.494 286.8 205.251 287.063 205.007 287.368H174.429C174.206 287.368 174.023 287.185 174.023 286.962V252.224C174.023 252.001 174.206 251.818 174.429 251.818H290.959C291.183 251.818 291.365 252.001 291.365 252.224V269.938C291.101 269.796 290.817 269.735 290.554 269.836Z" fill="black" stroke="black"/>
<path d="M197.52 280.57H179.989C179.765 280.57 179.583 280.388 179.583 280.165V259.793C179.583 259.569 179.765 259.387 179.989 259.387H197.52C197.743 259.387 197.926 259.569 197.926 259.793V280.165C197.926 280.388 197.743 280.57 197.52 280.57ZM197.114 260.198H180.394V279.759H197.114V260.198Z" fill="black" stroke="black"/>
<path d="M281.545 280.57H279.293C279.272 280.55 279.272 280.53 279.252 280.509C279.049 280.225 278.846 279.982 278.643 279.759H281.322C281.403 280.043 281.484 280.306 281.545 280.57Z" fill="black" stroke="black"/>
<path d="M204.58 280.165V259.793C204.58 259.569 204.762 259.387 204.985 259.387H285.682C285.905 259.387 286.088 259.569 286.088 259.793V266.468C285.926 266.489 285.784 266.549 285.662 266.671C285.378 266.935 285.317 267.341 285.398 267.848C285.357 267.807 285.317 267.747 285.276 267.706V260.219H205.411V279.779H276.064C276.044 280.023 276.024 280.286 276.044 280.591H205.006C204.762 280.57 204.58 280.388 204.58 280.165Z" fill="black" stroke="black"/>
<path d="M267.322 266.488C267.322 266.265 267.504 266.083 267.728 266.083H281.911C282.053 266.083 282.195 266.164 282.256 266.285C282.215 266.306 282.195 266.326 282.154 266.346C281.992 266.488 281.87 266.671 281.789 266.874H267.728C267.504 266.894 267.322 266.712 267.322 266.488Z" fill="black" stroke="black"/>
<path d="M182.383 266.062H187.456C187.679 266.062 187.861 266.245 187.861 266.468C187.861 266.691 187.679 266.874 187.456 266.874H182.383C182.16 266.874 181.977 266.691 181.977 266.468C181.977 266.245 182.16 266.062 182.383 266.062Z" fill="black" stroke="black"/>
<path d="M190.355 266.874C190.132 266.874 189.95 266.691 189.95 266.468C189.95 266.245 190.132 266.062 190.355 266.062H195.428C195.651 266.062 195.834 266.245 195.834 266.468C195.834 266.691 195.651 266.874 195.428 266.874H190.355Z" fill="black" stroke="black"/>
<path d="M185.569 273.529H195.065C195.288 273.529 195.471 273.712 195.471 273.935C195.471 274.158 195.288 274.341 195.065 274.341H185.569C185.346 274.341 185.163 274.158 185.163 273.935C185.163 273.712 185.346 273.529 185.569 273.529Z" fill="black" stroke="black"/>
<path d="M252.975 266.894H216.918C216.695 266.894 216.512 266.712 216.512 266.488C216.512 266.265 216.695 266.083 216.918 266.083H252.975C253.198 266.083 253.381 266.265 253.381 266.488C253.381 266.712 253.198 266.894 252.975 266.894Z" fill="black" stroke="black"/>
<path d="M208.111 273.529H232.338C232.562 273.529 232.744 273.712 232.744 273.935C232.744 274.158 232.562 274.341 232.338 274.341H208.091C207.868 274.341 207.685 274.158 207.685 273.935C207.685 273.712 207.888 273.529 208.111 273.529Z" fill="black" stroke="black"/>
<path d="M251.88 273.529H276.127C276.351 273.529 276.533 273.712 276.533 273.935C276.533 274.158 276.351 274.341 276.127 274.341H251.88C251.657 274.341 251.474 274.158 251.474 273.935C251.474 273.712 251.657 273.529 251.88 273.529Z" fill="black" stroke="black"/>
<path d="M351.506 105.886H350.898L348.99 103.208L87.1368 103.431L83.6265 105.886H82.3482C82.2467 105.886 82.1453 105.927 82.0641 106.008C82.0844 105.988 82.1047 105.988 82.1047 105.967L86.7919 102.701C86.8527 102.66 86.9339 102.619 87.0151 102.619L286.677 102.457L349.193 102.396C349.315 102.396 349.457 102.457 349.518 102.559L351.831 105.785C351.912 105.886 351.932 106.028 351.892 106.15C351.831 106.008 351.689 105.886 351.506 105.886Z" fill="black" stroke="black"/>
<path d="M81.9434 106.312C81.9434 106.332 81.9434 106.352 81.9434 106.352C81.9434 106.332 81.9434 106.312 81.9434 106.312Z" fill="black" stroke="black"/>
<path d="M81.9629 106.15C81.9629 106.17 81.9629 106.17 81.9429 106.19C81.9429 106.19 81.9629 106.17 81.9629 106.15Z" fill="black" stroke="black"/>
<path d="M81.9429 106.373C81.9429 106.393 81.9429 106.393 81.9629 106.413C81.9629 106.413 81.9429 106.393 81.9429 106.373Z" fill="black" stroke="black"/>
<path d="M82.043 106.008C82.0227 106.028 82.0024 106.049 82.0024 106.069C82.0227 106.049 82.043 106.028 82.043 106.008Z" fill="black" stroke="black"/>
<path d="M81.9434 106.231C81.9434 106.251 81.9434 106.271 81.9434 106.271C81.9434 106.251 81.9434 106.251 81.9434 106.231Z" fill="black" stroke="black"/>
<path d="M82.0039 106.089C82.0039 106.109 81.9839 106.109 81.9839 106.129C81.9839 106.109 81.9839 106.089 82.0039 106.089Z" fill="black" stroke="black"/>
<path d="M320.158 176.113L305.894 207.523C305.833 207.665 305.691 207.767 305.529 207.767H264.622H263.811H232.928H231.994H202.41H201.477H170.696H169.884H127.74C127.578 207.767 127.436 207.665 127.375 207.523L113.273 176.113L112.908 175.301L81.9843 106.455C82.0451 106.597 82.1872 106.698 82.3495 106.698H82.9785L128.004 206.955H305.265L350.757 106.698H351.508C351.568 106.698 351.609 106.678 351.67 106.657L334.707 144.033L320.523 175.301L320.158 176.113Z" fill="black" stroke="black"/>
<path d="M350.756 106.698H82.9569H82.3279C82.1656 106.698 82.0236 106.597 81.9627 106.455V106.434C81.9627 106.414 81.9424 106.414 81.9424 106.394V106.373C81.9424 106.353 81.9424 106.333 81.9424 106.333C81.9424 106.333 81.9424 106.333 81.9424 106.313V106.292C81.9424 106.272 81.9424 106.252 81.9424 106.252V106.231C81.9424 106.211 81.9424 106.211 81.9627 106.191V106.17C81.9627 106.15 81.983 106.13 81.983 106.13C81.983 106.13 81.9829 106.11 82.0032 106.11C82.0235 106.089 82.0236 106.069 82.0439 106.049C82.125 105.988 82.2061 105.927 82.3279 105.927H83.6062H350.898H351.506C351.689 105.927 351.831 106.049 351.892 106.191C351.912 106.231 351.912 106.272 351.912 106.333C351.912 106.495 351.811 106.637 351.669 106.698C351.628 106.718 351.567 106.739 351.506 106.739H350.756V106.698Z" fill="black" stroke="black"/>
<path d="M321.437 121.673C321.579 121.673 321.7 121.733 321.781 121.855C321.863 121.957 321.883 122.099 321.822 122.241L293.192 195.876C293.131 196.039 292.989 196.14 292.806 196.14H140.97C140.807 196.14 140.665 196.039 140.584 195.897L110.675 122.261C110.615 122.139 110.635 121.997 110.716 121.876C110.797 121.754 110.919 121.693 111.061 121.693H321.437V121.673ZM292.542 195.308L320.848 122.484H111.67L141.233 195.308H292.542Z" fill="black" stroke="black"/>
<path d="M164.038 136.404L159.919 126.786H274.461L271.397 136.404H164.038Z" fill="white" stroke="black"/>
<path d="M272.088 136.931C272.027 137.094 271.885 137.215 271.703 137.215H163.755C163.593 137.215 163.451 137.114 163.39 136.972L158.926 126.543C158.865 126.421 158.886 126.279 158.967 126.157C159.048 126.035 159.17 125.974 159.312 125.974H275.01C275.132 125.974 275.254 126.035 275.335 126.137C275.416 126.238 275.436 126.38 275.396 126.502L272.088 136.931ZM159.92 126.786L164.04 136.404H271.398L274.442 126.786H159.92Z" fill="black" stroke="black"/>
<path d="M267.158 148.375L260.746 165.927H202.39L199.935 148.375H267.158Z" fill="white" stroke="black"/>
<path d="M199.468 147.564H267.726C267.868 147.564 267.99 147.625 268.051 147.746C268.132 147.848 268.152 147.99 268.092 148.112L261.396 166.475C261.335 166.637 261.193 166.739 261.01 166.739H202.025C201.822 166.739 201.659 166.597 201.619 166.394L199.042 148.03C199.022 147.909 199.062 147.787 199.143 147.706C199.224 147.625 199.346 147.564 199.468 147.564ZM260.746 165.927L267.158 148.375H199.935L202.39 165.927H260.746Z" fill="black" stroke="black"/>
<path d="M201.964 175.301H258.859L252.813 183.438H204.318L201.964 175.301ZM204.906 182.647H252.387L257.236 176.133H203.039L204.906 182.647Z" fill="black" stroke="black"/>
<path d="M185.874 148.375L188.188 169.904L175.587 169.802L167.653 148.375H185.874Z" fill="white" stroke="black"/>
<path d="M166.678 148.112C166.638 147.99 166.658 147.848 166.719 147.746C166.8 147.645 166.922 147.564 167.044 147.564H186.198C186.401 147.564 186.584 147.726 186.604 147.929L189.059 170.269C189.08 170.391 189.039 170.492 188.958 170.594C188.877 170.675 188.775 170.736 188.653 170.736L175.322 170.614C175.16 170.614 174.998 170.513 174.937 170.35L166.678 148.112ZM188.187 169.904L185.853 148.375H167.632L175.586 169.802L188.187 169.904Z" fill="black" stroke="black"/>
<path d="M176.723 175.869C176.662 175.748 176.682 175.606 176.743 175.484C176.824 175.362 176.946 175.301 177.088 175.301L189.12 175.24C189.303 175.24 189.465 175.383 189.526 175.565L191.19 183.032C191.21 183.154 191.19 183.276 191.109 183.377C191.028 183.479 190.926 183.539 190.804 183.539L180.476 183.661C180.314 183.661 180.172 183.56 180.111 183.418L176.723 175.869ZM180.7 182.829L190.257 182.708L188.775 176.052L177.697 176.113L180.7 182.829Z" fill="black" stroke="black"/>
<path d="M96.9968 225.46H111.951V228.423H96.9968V225.46Z" fill="white" stroke="black"/>
<path d="M112.36 229.255H96.5938C96.3706 229.255 96.188 229.072 96.188 228.849V225.054C96.188 224.831 96.3706 224.649 96.5938 224.649H112.36C112.583 224.649 112.766 224.831 112.766 225.054V228.829C112.766 229.072 112.583 229.255 112.36 229.255ZM111.954 225.46H96.9996V228.423H111.954V225.46Z" fill="black" stroke="black"/>
<path d="M96.9968 232.927H111.951V242.586H96.9968V232.927Z" fill="white" stroke="black"/>
<path d="M112.36 243.397H96.5938C96.3706 243.397 96.188 243.215 96.188 242.992V232.522C96.188 232.298 96.3706 232.116 96.5938 232.116H112.36C112.583 232.116 112.766 232.298 112.766 232.522V242.992C112.766 243.215 112.583 243.397 112.36 243.397ZM111.954 232.927H96.9996V242.586H111.954V232.927Z" fill="black" stroke="black"/>
<path d="M96.5938 246.664H112.36C112.583 246.664 112.766 246.847 112.766 247.07V257.297V257.54C112.766 257.763 112.583 257.946 112.36 257.946H96.5938C96.3706 257.946 96.188 257.763 96.188 257.54V257.297V247.07C96.188 246.847 96.3706 246.664 96.5938 246.664ZM111.954 247.476H96.9996V257.134H111.954V247.476Z" fill="black" stroke="black"/>
<path d="M322.672 232.44H351.404V236.275H322.672V232.44Z" fill="white" stroke="black"/>
<path d="M351.811 237.087H322.268C322.044 237.087 321.862 236.904 321.862 236.681V232.034C321.862 231.811 322.044 231.629 322.268 231.629H351.811C352.034 231.629 352.217 231.811 352.217 232.034V236.681C352.217 236.904 352.034 237.087 351.811 237.087ZM351.405 232.44H322.673V236.275H351.405V232.44Z" fill="black" stroke="black"/>
<path d="M322.672 244.858H351.404V258.92H322.672V244.858Z" fill="white" stroke="black"/>
<path d="M351.811 259.731H322.268C322.044 259.731 321.862 259.549 321.862 259.326V244.452C321.862 244.229 322.044 244.047 322.268 244.047H351.811C352.034 244.047 352.217 244.229 352.217 244.452V259.326C352.217 259.549 352.034 259.731 351.811 259.731ZM351.405 244.858H322.673V258.92H351.405V244.858Z" fill="black" stroke="black"/>
<path d="M321.841 282.599V282.173V267.929C321.841 267.706 322.024 267.523 322.247 267.523H351.811C352.034 267.523 352.217 267.706 352.217 267.929V282.173V282.599C352.217 282.782 352.095 282.944 351.912 282.985C351.872 282.985 351.852 283.005 351.811 283.005H322.268C322.227 283.005 322.186 283.005 322.166 282.985C321.983 282.924 321.841 282.782 321.841 282.599ZM351.405 268.335H322.673V282.173V282.193H351.405V282.173V268.335Z" fill="black" stroke="black"/>
<path d="M143.283 270.81C145.474 271.926 149.167 272.251 152.333 271.52C155.478 270.81 155.802 266.772 156.127 262.511C156.289 260.442 156.452 258.291 156.979 256.485C157.689 253.989 157.568 251.98 156.614 250.519C155.579 248.916 153.53 247.902 150.547 247.456C150.324 247.415 150.101 247.415 149.898 247.395C149.918 247.09 149.938 246.826 149.959 246.583C150.182 246.583 150.425 246.624 150.669 246.644C153.915 247.111 156.147 248.267 157.304 250.053C158.4 251.737 158.542 253.969 157.771 256.688C157.284 258.413 157.121 260.523 156.959 262.552C156.614 266.914 156.269 271.439 152.535 272.292C151.318 272.576 150.04 272.697 148.782 272.697C146.59 272.697 144.48 272.292 142.958 271.52C142.999 271.399 143.1 271.135 143.283 270.81Z" fill="black" stroke="black"/>
<path d="M280.793 288.971C278.297 286.921 276.735 281.95 276.836 280.043C276.857 279.556 276.978 279.454 276.978 279.454C276.999 279.454 277.445 279.454 278.581 280.996C280.326 283.35 281.422 284.243 282.193 283.918C282.985 283.614 282.863 282.295 282.822 282.031C282.822 282.011 282.822 281.991 282.802 281.95C282.782 281.869 280.387 274.26 280.367 271.805V271.378C280.367 270.729 280.347 270.019 280.428 269.776C280.57 269.816 280.955 270.019 281.909 270.851C282.173 271.48 283.837 275.599 284.689 279.475C284.73 279.657 284.892 279.799 285.095 279.799C285.115 279.799 285.156 279.799 285.176 279.799C285.399 279.759 285.541 279.535 285.48 279.312C284.628 275.376 282.924 271.196 282.66 270.547C282.66 270.262 282.619 269.877 282.558 269.431C282.457 268.68 282.295 267.28 282.64 266.996C282.741 266.914 282.964 266.955 283.127 267.016C284.385 267.442 285.419 269.289 285.927 270.364C285.967 270.425 286.008 270.486 286.048 270.526C286.414 271.561 287.733 275.518 288.199 278.237C288.24 278.44 288.402 278.582 288.605 278.582C288.625 278.582 288.646 278.582 288.666 278.582C288.889 278.541 289.031 278.338 288.991 278.115C288.504 275.335 287.185 271.419 286.799 270.303C286.82 270.222 286.82 270.12 286.799 270.019C286.738 269.816 286.677 269.613 286.596 269.39C286.393 268.741 285.988 267.523 286.15 267.28C286.15 267.28 286.15 267.28 286.17 267.28C286.231 267.28 286.414 267.3 286.82 267.483C288.199 268.112 289.092 270.141 289.559 271.622C289.579 271.845 289.681 272.19 289.883 272.88C290.107 273.631 290.452 274.686 290.878 276.045C291.121 276.837 291.405 277.73 291.71 278.703C291.77 278.886 291.933 278.988 292.095 278.988C292.136 278.988 292.176 278.988 292.217 278.967C292.44 278.906 292.542 278.663 292.481 278.46C292.176 277.486 291.892 276.593 291.649 275.802C291.324 274.767 291.02 273.813 290.797 273.083C290.797 273.063 290.776 273.022 290.776 272.961C290.533 271.805 290.573 270.729 290.756 270.607C290.776 270.607 291.06 270.628 291.791 271.358C294.226 273.874 296.336 285.602 297.066 290.046C295.423 289.782 290.492 289.458 284.588 293.759C283.999 292.44 282.822 290.655 280.793 288.971Z" fill="white" stroke="black"/>
<path d="M280.287 289.6C279.597 289.031 278.968 288.26 278.42 287.368C278.258 287.104 278.096 286.84 277.954 286.556C276.858 284.527 276.148 282.153 276.046 280.57C276.026 280.266 276.026 280.002 276.067 279.758C276.087 279.657 276.087 279.556 276.107 279.474C276.249 278.886 276.574 278.703 276.838 278.663C277.325 278.561 277.913 278.927 278.644 279.758C278.826 279.982 279.029 280.225 279.252 280.509C279.273 280.53 279.273 280.55 279.293 280.57C281.322 283.289 281.91 283.167 281.91 283.167C282.012 283.106 282.093 282.64 282.032 282.173C281.971 282.011 281.789 281.402 281.545 280.57C281.464 280.327 281.383 280.043 281.302 279.758C280.571 277.263 279.577 273.509 279.557 271.845V271.419C279.536 270.059 279.516 269.309 280.084 269.065C280.47 268.883 280.936 269.045 281.789 269.735C281.789 269.674 281.768 269.613 281.768 269.552C281.647 268.619 281.525 267.604 281.789 266.914C281.87 266.691 281.991 266.509 282.154 266.387C282.194 266.367 282.215 266.346 282.255 266.326C282.56 266.143 282.945 266.123 283.412 266.265C284.122 266.509 284.731 267.056 285.279 267.726C285.319 267.767 285.36 267.827 285.4 267.868C285.319 267.361 285.38 266.955 285.664 266.691C285.786 266.569 285.928 266.529 286.09 266.488C286.476 266.427 286.902 266.59 287.227 266.752C288.545 267.361 289.459 268.943 290.047 270.384C290.128 270.181 290.27 270.019 290.453 269.917C290.493 269.897 290.534 269.877 290.575 269.857C290.838 269.775 291.122 269.816 291.386 269.958C291.772 270.161 292.157 270.506 292.462 270.81C295.444 273.874 297.798 288.768 298.184 291.304L298.042 290.492C298.021 290.33 297.9 290.208 297.757 290.168C297.717 290.147 297.514 290.107 297.169 290.046C296.439 285.602 294.328 273.874 291.893 271.358C291.163 270.607 290.879 270.607 290.859 270.607C290.676 270.729 290.656 271.804 290.879 272.961C290.899 273.022 290.899 273.063 290.899 273.083C290.676 272.352 290.514 271.845 290.473 271.642C290.493 271.5 290.432 271.358 290.311 271.257C290.169 271.155 289.966 271.155 289.824 271.257C289.702 271.338 289.641 271.419 289.641 271.602C289.154 270.12 288.261 268.091 286.902 267.462C286.496 267.28 286.313 267.259 286.253 267.259C286.232 267.259 286.232 267.259 286.232 267.259C286.07 267.503 286.476 268.72 286.679 269.37C286.74 269.573 286.821 269.796 286.882 269.999C286.902 270.1 286.902 270.181 286.882 270.283C286.821 270.08 286.78 269.978 286.78 269.958C286.699 269.755 286.455 269.654 286.253 269.735C286.05 269.816 285.948 270.059 286.029 270.262C286.029 270.262 286.07 270.364 286.111 270.526C286.05 270.486 286.009 270.425 285.989 270.364C285.482 269.288 284.426 267.442 283.189 267.016C283.026 266.955 282.803 266.914 282.702 266.996C282.357 267.28 282.519 268.68 282.621 269.43C282.681 269.877 282.722 270.262 282.722 270.546C282.702 270.486 282.681 270.465 282.681 270.465C282.6 270.262 282.357 270.161 282.154 270.242C281.951 270.323 281.849 270.567 281.931 270.77C281.931 270.77 281.951 270.81 281.971 270.851C281.018 270.039 280.632 269.816 280.49 269.775C280.409 269.999 280.409 270.729 280.429 271.378V271.804C280.449 274.26 282.844 281.869 282.864 281.95C282.864 281.97 282.884 281.991 282.884 282.031C282.925 282.295 283.047 283.593 282.255 283.918C281.464 284.243 280.389 283.35 278.644 280.996C277.507 279.474 277.061 279.454 277.041 279.454C277.041 279.454 276.919 279.556 276.898 280.043C276.797 281.95 278.359 286.921 280.855 288.971C282.884 290.634 284.061 292.44 284.71 293.759C284.568 293.861 284.447 293.942 284.305 294.064C284.183 294.165 284.122 294.307 284.142 294.449C284.142 294.449 284.142 294.469 284.163 294.51C283.554 293.272 282.418 291.345 280.287 289.6Z" fill="black" stroke="black"/>
<path d="M291.711 275.782C291.954 276.573 292.239 277.466 292.543 278.44C292.604 278.663 292.482 278.886 292.279 278.947C292.239 278.967 292.198 278.967 292.157 278.967C291.975 278.967 291.833 278.866 291.772 278.683C291.467 277.709 291.183 276.816 290.94 276.025C290.514 274.666 290.169 273.59 289.946 272.86C289.743 272.17 289.621 271.805 289.621 271.602C289.601 271.419 289.662 271.338 289.804 271.257C289.946 271.155 290.149 271.155 290.291 271.257C290.412 271.338 290.473 271.5 290.453 271.642C290.493 271.845 290.656 272.352 290.879 273.083C291.102 273.813 291.386 274.747 291.711 275.782Z" fill="black" stroke="black"/>
<path d="M288.708 278.561C288.688 278.561 288.667 278.561 288.647 278.561C288.444 278.561 288.282 278.419 288.241 278.216C287.774 275.497 286.435 271.541 286.09 270.506C286.029 270.344 286.009 270.242 286.009 270.242C285.928 270.039 286.029 269.796 286.232 269.715C286.435 269.633 286.679 269.735 286.76 269.938C286.76 269.938 286.8 270.06 286.861 270.262C287.247 271.378 288.566 275.315 289.053 278.074C289.073 278.298 288.931 278.521 288.708 278.561Z" fill="black" stroke="black"/>
<path d="M285.501 279.312C285.541 279.535 285.399 279.738 285.197 279.799C285.176 279.799 285.136 279.799 285.115 279.799C284.933 279.799 284.77 279.677 284.71 279.475C283.878 275.619 282.193 271.5 281.93 270.851C281.909 270.79 281.889 270.77 281.889 270.77C281.808 270.567 281.889 270.323 282.112 270.242C282.315 270.161 282.559 270.242 282.64 270.465C282.64 270.465 282.66 270.506 282.68 270.547C282.944 271.196 284.649 275.376 285.501 279.312Z" fill="black" stroke="black"/>
<path d="M137.602 246.725C138.434 245.995 138.698 246.055 138.698 246.055C138.86 246.197 138.799 247.253 138.475 248.389C138.455 248.45 138.455 248.49 138.434 248.511C138.15 249.221 137.785 250.134 137.379 251.148C137.075 251.919 136.71 252.792 136.324 253.746C136.243 253.949 136.344 254.192 136.547 254.273C136.588 254.294 136.649 254.294 136.689 254.294C136.852 254.294 136.994 254.192 137.075 254.03C137.46 253.076 137.805 252.204 138.13 251.433C138.657 250.114 139.084 249.079 139.368 248.348C139.631 247.679 139.773 247.334 139.794 247.131C140.402 245.69 141.437 243.722 142.858 243.215C143.405 243.012 143.568 243.073 143.568 243.093C143.69 243.316 143.203 244.513 142.939 245.142C142.858 245.345 142.776 245.548 142.695 245.751C142.655 245.832 142.655 245.934 142.675 246.015C142.188 247.131 140.544 251.006 139.875 253.644C139.814 253.867 139.956 254.091 140.159 254.131C140.2 254.131 140.22 254.151 140.26 254.151C140.443 254.151 140.605 254.03 140.646 253.847C141.336 251.169 142.979 247.334 143.405 246.319C143.466 246.279 143.507 246.238 143.548 246.177C144.136 245.163 145.333 243.397 146.611 243.073C146.774 243.032 146.997 242.992 147.098 243.093C147.423 243.397 147.139 244.797 146.977 245.528C146.896 245.974 146.814 246.36 146.794 246.644C146.49 247.253 144.461 251.29 143.284 255.146C143.223 255.369 143.345 255.592 143.548 255.653C143.588 255.673 143.629 255.673 143.669 255.673C143.852 255.673 144.014 255.552 144.055 255.389C145.191 251.615 147.2 247.638 147.504 247.029C148.519 246.279 148.904 246.096 149.067 246.076C149.127 246.319 149.067 247.029 149.006 247.658L148.965 248.085C148.742 250.519 145.759 257.926 145.719 257.986C145.719 258.007 145.698 258.027 145.698 258.047C145.637 258.311 145.414 259.589 146.165 259.975C146.916 260.36 148.072 259.569 150 257.357C151.278 255.876 151.725 255.957 151.725 255.957C151.725 255.957 151.826 256.059 151.826 256.546C151.765 258.453 149.817 263.282 147.18 265.129C144.258 267.158 142.898 269.552 142.35 270.729C141.173 269.228 137.562 265.616 130.521 266.042C131.251 263.201 134.68 249.282 137.602 246.725Z" fill="white" stroke="black"/>
<path d="M137.055 246.116C137.643 245.609 138.495 244.96 139.124 245.366C139.287 245.467 139.408 245.65 139.49 245.853C140.179 244.473 141.214 242.951 142.594 242.464C143.081 242.281 143.751 242.099 144.156 242.525C144.42 242.809 144.441 243.215 144.319 243.722C144.948 243.032 145.658 242.484 146.429 242.281C146.957 242.139 147.383 242.22 147.667 242.505C148.316 243.134 148.032 244.493 147.789 245.69C147.768 245.751 147.768 245.812 147.748 245.853C148.661 245.244 149.128 245.122 149.493 245.325C149.838 245.528 149.939 245.913 149.919 246.563C149.919 246.806 149.899 247.07 149.858 247.374C149.838 247.496 149.838 247.598 149.818 247.719L149.777 248.145C149.554 250.641 146.754 257.621 146.49 258.25C146.409 258.697 146.449 259.184 146.53 259.244C146.53 259.244 147.119 259.427 149.392 256.81C150.528 255.511 151.339 254.983 151.948 255.166C152.192 255.227 152.496 255.45 152.597 256.039C152.942 258.068 150.568 263.769 147.626 265.798C145.11 267.543 143.812 269.613 143.223 270.77C143.061 271.094 142.959 271.358 142.878 271.5C142.838 271.602 142.817 271.683 142.817 271.683C142.858 271.581 142.838 271.46 142.777 271.358C142.777 271.338 142.614 271.094 142.33 270.729C142.858 269.552 144.238 267.158 147.16 265.129C149.818 263.282 151.766 258.453 151.806 256.546C151.826 256.059 151.705 255.957 151.705 255.957C151.705 255.957 151.279 255.876 149.98 257.357C148.052 259.569 146.896 260.36 146.145 259.975C145.394 259.61 145.617 258.311 145.678 258.047C145.678 258.027 145.699 258.007 145.699 257.986C145.719 257.905 148.722 250.519 148.945 248.085L148.986 247.658C149.047 247.009 149.107 246.299 149.047 246.076C148.884 246.096 148.499 246.279 147.484 247.029C147.504 246.989 147.525 246.948 147.525 246.948C147.626 246.745 147.545 246.502 147.342 246.4C147.139 246.299 146.896 246.38 146.794 246.583C146.794 246.583 146.774 246.624 146.754 246.664C146.774 246.38 146.855 245.995 146.936 245.548C147.099 244.797 147.383 243.418 147.058 243.113C146.957 243.012 146.733 243.052 146.571 243.093C145.293 243.418 144.096 245.183 143.507 246.197C143.467 246.258 143.426 246.299 143.365 246.34C143.426 246.177 143.467 246.096 143.467 246.096C143.568 245.893 143.487 245.65 143.284 245.548C143.081 245.447 142.838 245.528 142.736 245.731C142.716 245.771 142.675 245.873 142.594 246.035C142.574 245.954 142.594 245.853 142.614 245.771C142.696 245.568 142.777 245.366 142.858 245.163C143.122 244.534 143.609 243.336 143.487 243.113C143.487 243.113 143.345 243.032 142.777 243.235C141.356 243.742 140.301 245.711 139.713 247.151C139.733 246.969 139.692 246.887 139.571 246.786C139.429 246.664 139.226 246.664 139.084 246.745C138.962 246.826 138.881 246.969 138.901 247.111C138.84 247.293 138.658 247.8 138.374 248.511C138.374 248.49 138.394 248.45 138.414 248.389C138.739 247.253 138.8 246.197 138.637 246.055C138.637 246.055 138.374 245.995 137.542 246.725C134.62 249.282 131.191 263.181 130.501 266.082C130.318 266.103 130.136 266.103 129.953 266.123C129.831 266.143 129.709 266.204 129.649 266.306C129.649 266.306 129.628 266.326 129.608 266.367C129.953 265.068 133.686 249.079 137.055 246.116Z" fill="black" stroke="black"/>
<path d="M138.149 251.473C137.844 252.244 137.479 253.117 137.093 254.07C137.033 254.233 136.87 254.334 136.708 254.334C136.667 254.334 136.607 254.334 136.566 254.314C136.363 254.233 136.262 253.989 136.343 253.786C136.728 252.833 137.073 251.96 137.398 251.189C137.804 250.174 138.169 249.261 138.453 248.551C138.737 247.841 138.92 247.354 138.981 247.151C138.981 247.009 139.041 246.867 139.163 246.786C139.305 246.684 139.508 246.705 139.65 246.826C139.772 246.928 139.833 247.009 139.792 247.192C139.772 247.395 139.63 247.74 139.366 248.409C139.082 249.099 138.676 250.154 138.149 251.473Z" fill="black" stroke="black"/>
<path d="M140.259 254.172C140.218 254.172 140.198 254.172 140.158 254.152C139.934 254.091 139.813 253.868 139.874 253.665C140.543 251.047 142.187 247.172 142.674 246.035C142.735 245.873 142.795 245.772 142.816 245.731C142.917 245.528 143.161 245.447 143.364 245.548C143.566 245.65 143.648 245.893 143.546 246.096C143.546 246.096 143.506 246.198 143.445 246.34C142.998 247.354 141.375 251.169 140.685 253.868C140.604 254.05 140.442 254.172 140.259 254.172Z" fill="black" stroke="black"/>
<path d="M144.075 255.41C144.014 255.592 143.852 255.694 143.689 255.694C143.649 255.694 143.608 255.694 143.568 255.673C143.344 255.612 143.223 255.389 143.304 255.166C144.46 251.311 146.49 247.273 146.814 246.664C146.834 246.624 146.855 246.583 146.855 246.583C146.956 246.38 147.2 246.299 147.403 246.4C147.606 246.502 147.687 246.745 147.585 246.948C147.585 246.948 147.565 246.989 147.545 247.029C147.22 247.658 145.231 251.635 144.075 255.41Z" fill="black" stroke="black"/>
<path d="M108.95 343.35C107.895 337.547 107.489 331.541 107.753 324.946C107.773 324.682 107.773 324.398 107.794 324.135C107.936 321.213 108.199 318.189 108.585 315.004C110.776 297.209 128.754 267.848 129.667 266.387C129.687 266.367 129.708 266.326 129.708 266.326C129.769 266.225 129.89 266.143 130.012 266.143C130.195 266.123 130.377 266.123 130.56 266.103C137.601 265.677 141.213 269.288 142.389 270.79C142.694 271.176 142.836 271.419 142.836 271.419C142.897 271.52 142.897 271.642 142.876 271.744C142.816 271.947 136.465 291.304 139.508 310.317C140.259 315.349 142.085 319.975 144.52 324.135C144.682 324.398 144.845 324.682 145.007 324.946C149.126 331.683 154.828 337.182 160.002 341.28C159.84 341.504 159.677 341.706 159.515 341.93C154.463 337.932 150.222 333.692 146.935 329.268C146.042 328.071 145.23 326.874 144.459 325.656C144.459 325.636 144.439 325.616 144.439 325.596C144.419 325.575 144.419 325.555 144.398 325.535C141.395 320.645 139.468 315.592 138.717 310.438C137.804 304.797 137.723 299.116 138.068 293.901L138.372 293.556C138.534 293.394 138.514 293.13 138.352 292.988C138.291 292.927 138.21 292.887 138.128 292.887C138.372 289.782 138.737 286.86 139.163 284.243C139.326 284.223 139.468 284.101 139.508 283.938C139.61 283.533 139.569 283.107 139.427 282.701C140.482 276.755 141.76 272.596 142.045 271.703C141.456 270.81 138.128 266.346 130.276 266.955C129.363 268.457 122.789 279.272 117.229 291.405C117.188 291.405 117.148 291.405 117.127 291.426C116.904 291.487 116.782 291.71 116.823 291.913C116.843 292.014 116.864 292.095 116.864 292.197C113.292 300.09 110.208 308.45 109.376 315.146C108.808 319.752 108.402 324.622 108.463 329.775C108.402 329.755 108.341 329.755 108.281 329.735C108.057 329.674 107.834 329.796 107.773 330.019C107.712 330.242 107.834 330.465 108.057 330.526C108.199 330.567 108.341 330.607 108.463 330.628C108.707 343.431 111.872 357.858 122.444 373.766C132.833 389.39 145.636 397.364 145.778 397.445C145.9 397.506 145.961 397.648 145.981 397.77L147.158 428.166L145.859 404.547C145.859 404.527 145.859 404.527 145.859 404.507C145.859 404.486 145.859 404.486 145.859 404.466C145.859 404.446 145.859 404.446 145.839 404.426C145.839 404.405 145.839 404.405 145.819 404.385C145.819 404.365 145.798 404.365 145.798 404.344L145.778 404.324C145.778 404.304 145.758 404.304 145.758 404.283L145.737 404.263C145.717 404.243 145.717 404.243 145.697 404.243L145.677 404.223C145.656 404.223 145.656 404.202 145.636 404.202L145.616 404.182C145.595 404.182 145.575 404.162 145.575 404.162H145.555C145.535 404.162 145.494 404.162 145.474 404.162H145.433L145.19 398.014C144.175 397.364 139.102 393.976 133.035 387.909C129.424 384.297 125.447 379.732 121.794 374.212C115.078 364.087 110.878 354.003 108.95 343.35Z" fill="black" stroke="black"/>
<path d="M277.101 326.427C277.061 326.529 277.081 326.651 277.142 326.752C277.223 326.914 277.324 327.077 277.426 327.28C274.058 331.257 269.675 334.179 264.358 336.005C258.332 338.074 253.625 339.495 249.972 340.428C249.932 340.164 249.891 339.88 249.851 339.617C253.442 338.703 258.068 337.303 264.095 335.234C269.472 333.387 273.814 330.445 277.101 326.427Z" fill="black" stroke="black"/>
<path d="M262.042 407.855C262.022 407.855 261.982 407.855 261.961 407.855H261.941C261.921 407.855 261.9 407.855 261.9 407.875C261.9 407.875 261.88 407.875 261.88 407.895C261.86 407.895 261.86 407.916 261.84 407.916L261.819 407.936C261.799 407.936 261.799 407.956 261.779 407.956L261.758 407.976C261.758 407.997 261.738 407.997 261.738 408.017L261.718 408.037C261.718 408.058 261.698 408.058 261.698 408.078C261.698 408.098 261.698 408.098 261.677 408.118C261.677 408.118 261.677 408.118 261.677 408.139C261.86 407.408 262.063 406.739 262.306 406.171C265.553 398.379 271.802 393.002 276.388 389.086C276.591 388.903 276.794 388.741 276.997 388.558C277.119 388.599 277.261 388.619 277.382 388.619C277.403 388.619 277.403 388.619 277.423 388.619C277.626 388.619 277.808 388.457 277.829 388.254C277.849 388.132 277.788 388.01 277.707 387.929C278.782 386.996 279.716 386.143 280.487 385.352C282.658 383.1 287.365 377.702 291.85 369.322C291.85 369.322 291.85 369.322 291.87 369.322C292.093 369.383 292.316 369.261 292.357 369.038C292.458 368.632 292.56 368.227 292.621 367.821C296.638 359.928 300.331 349.62 301.61 337.019C301.671 336.451 301.731 335.782 301.772 335.011C302.442 325.656 301.914 316.16 300.169 306.786L297.227 290.878C296.07 290.655 290.957 290.026 284.89 294.551C285.113 295.991 286.107 303.438 284.484 311.717C283.429 317.114 281.461 321.801 278.661 325.636C278.417 325.961 278.174 326.285 277.93 326.59C277.89 326.509 277.849 326.427 277.788 326.346C277.687 326.143 277.423 326.083 277.24 326.184C277.565 325.778 277.89 325.352 278.194 324.926C278.377 324.662 278.58 324.398 278.742 324.114C281.055 320.604 282.719 316.424 283.673 311.554C285.377 302.971 284.18 295.261 284.058 294.49C284.058 294.449 284.058 294.429 284.038 294.429C284.017 294.287 284.078 294.124 284.2 294.043C284.342 293.942 284.464 293.84 284.606 293.739C290.511 289.437 295.441 289.742 297.085 290.026C297.43 290.087 297.633 290.127 297.673 290.147C297.815 290.188 297.937 290.31 297.957 290.472L298.099 291.284L300.94 306.644C302.015 312.447 302.624 318.291 302.787 324.114C302.787 324.378 302.807 324.662 302.807 324.926C302.868 328.315 302.787 331.703 302.543 335.051C302.482 335.822 302.421 336.512 302.381 337.08C299.662 363.621 286.412 380.097 281.562 385.312C281.359 385.514 281.177 385.717 281.014 385.88C279.898 387.036 278.478 388.254 276.835 389.674C272.086 393.753 266.162 398.846 262.976 406.455C262.814 406.86 262.651 407.327 262.509 407.834H262.042V407.855Z" fill="black" stroke="black"/>
<path d="M261.66 408.179V408.2V408.22C261.62 408.808 261.031 418.589 260.727 425.224C260.463 418.568 260.625 412.278 261.66 408.179Z" fill="black" stroke="black"/>
<path d="M184.414 292.217C184.394 292.217 184.374 292.237 184.374 292.237C184.374 292.237 184.394 292.237 184.414 292.217Z" fill="black" stroke="black"/>
<path d="M193.563 289.579C193.583 289.579 193.583 289.579 193.604 289.579C193.604 289.579 193.624 289.579 193.664 289.559C193.624 289.559 193.583 289.579 193.543 289.579H193.563Z" fill="black" stroke="black"/>
<path d="M184.33 292.278C184.31 292.298 184.31 292.298 184.29 292.318C184.29 292.298 184.31 292.278 184.33 292.278Z" fill="black" stroke="black"/>
<path d="M228.281 299.035L232.279 292.785C230.371 292.075 222.864 289.458 215.599 288.687C221.078 289.133 226.901 290.35 232.522 292.866C232.563 293.151 232.623 293.414 232.664 293.698L228.87 299.603C228.687 299.4 228.484 299.217 228.281 299.035Z" fill="black" stroke="black"/>
<path d="M233.131 292.258C233.111 292.238 233.091 292.238 233.091 292.238C233.111 292.238 233.111 292.258 233.131 292.258Z" fill="black" stroke="black"/>
<path d="M233.213 292.318C233.193 292.298 233.193 292.298 233.173 292.278C233.173 292.298 233.193 292.318 233.213 292.318Z" fill="black" stroke="black"/>
<path d="M233.252 292.399C233.252 292.379 233.232 292.359 233.232 292.359C233.232 292.379 233.252 292.379 233.252 292.399Z" fill="black" stroke="black"/>
<path d="M212.048 287.652C213.245 287.672 214.462 287.753 215.68 287.875C214.462 287.774 213.245 287.713 212.068 287.692C212.048 287.672 212.048 287.672 212.048 287.652Z" fill="black" stroke="black"/>
<path d="M184.25 292.339C184.23 292.359 184.23 292.379 184.23 292.379C184.23 292.379 184.25 292.359 184.25 292.339Z" fill="black" stroke="black"/>
<path d="M233.272 292.461C233.272 292.48 233.272 292.481 233.272 292.5C233.292 292.481 233.272 292.461 233.272 292.461C233.272 292.441 233.272 292.461 233.272 292.461Z" fill="black"/>
<path d="M233.272 292.461C233.272 292.48 233.272 292.481 233.272 292.5C233.292 292.481 233.272 292.461 233.272 292.461ZM233.272 292.461C233.272 292.441 233.272 292.461 233.272 292.461Z" stroke="black"/>
<path d="M184.209 292.44C184.209 292.44 184.209 292.46 184.189 292.48C184.189 292.48 184.189 292.46 184.209 292.44Z" fill="black" stroke="black"/>
<path d="M189.363 298.812C189.14 298.974 188.937 299.157 188.734 299.319L184.818 293.658L184.94 292.887C185.792 292.582 189.039 291.426 193.746 290.371L185.244 292.826L189.363 298.812Z" fill="black" stroke="black"/>
<path d="M193.826 290.351C195.795 289.904 198.006 289.498 200.421 289.174C201.537 289.011 202.754 288.89 203.992 288.768C203.952 288.808 203.931 288.869 203.891 288.91C198.757 289.417 194.395 290.229 193.826 290.351Z" fill="black" stroke="black"/>
<path d="M205.697 287.814C206.651 286.658 207.503 286.069 208.254 286.008C209.146 285.947 210.019 286.597 210.973 287.672C209.146 287.652 207.381 287.713 205.697 287.814Z" fill="white" stroke="black"/>
<path d="M201.618 294.409C201.739 294.388 201.841 294.307 201.902 294.185C203.079 291.832 204.113 290.005 205.047 288.666C207.116 288.504 209.348 288.443 211.662 288.484C212.23 289.214 212.838 290.066 213.488 291C214.198 291.994 214.989 293.11 215.862 294.246C215.923 294.327 216.024 294.388 216.126 294.409C223.187 295.261 228.706 299.035 232.5 305.609C233.028 306.542 233.495 307.456 233.9 308.348C232.034 306.705 229.964 305.345 227.732 304.554C223.572 303.093 212.615 299.846 200.968 301.165C195.571 301.774 190.782 303.316 186.744 305.731C185.527 306.461 184.391 307.273 183.315 308.145C186.359 300.8 192.203 296.458 201.618 294.409Z" fill="white" stroke="black"/>
<path d="M187.333 300.577C187.779 300.131 188.246 299.704 188.733 299.299C188.936 299.116 189.159 298.954 189.362 298.791C192.446 296.417 196.342 294.733 201.232 293.638C202.206 291.69 203.079 290.127 203.89 288.889C203.931 288.849 203.951 288.788 203.992 288.747C204.337 288.707 204.682 288.687 205.047 288.666C204.113 289.985 203.058 291.811 201.902 294.185C201.841 294.287 201.739 294.368 201.618 294.409C192.223 296.458 186.359 300.8 183.356 308.145C183.052 308.409 182.747 308.673 182.443 308.937L182.625 307.821C183.762 304.98 185.344 302.586 187.333 300.577Z" fill="black" stroke="black"/>
<path d="M205.738 286.556C206.59 285.704 207.401 285.257 208.193 285.196C209.207 285.115 210.12 285.623 211.054 286.556C211.297 286.799 211.541 287.063 211.805 287.368C211.886 287.469 211.967 287.55 212.048 287.652C212.048 287.672 212.068 287.672 212.068 287.692C211.703 287.692 211.338 287.672 210.993 287.672C210.039 286.596 209.167 285.947 208.274 286.008C207.503 286.069 206.671 286.657 205.717 287.814C205.352 287.834 204.987 287.855 204.622 287.895C204.764 287.712 204.906 287.53 205.027 287.368C205.271 287.063 205.514 286.779 205.738 286.556Z" fill="black" stroke="black"/>
<path d="M216.147 294.409C216.046 294.388 215.944 294.348 215.883 294.246C215.011 293.11 214.219 291.994 213.509 291C212.86 290.087 212.251 289.234 211.683 288.484C212.028 288.484 212.373 288.504 212.738 288.504C213.205 289.113 213.672 289.803 214.179 290.513C214.848 291.466 215.599 292.522 216.431 293.597C221.565 294.246 225.44 296.417 228.301 298.994C228.504 299.177 228.707 299.36 228.91 299.562C230.777 301.368 232.197 303.357 233.252 305.183C234.165 306.745 234.855 308.288 235.383 309.667V309.688C234.916 309.221 234.429 308.754 233.942 308.328C233.536 307.435 233.09 306.522 232.542 305.589C228.707 299.035 223.208 295.261 216.147 294.409Z" fill="black" stroke="black"/>
<path d="M205.697 287.814C207.381 287.713 209.146 287.652 210.993 287.672C211.358 287.672 211.703 287.672 212.068 287.692C213.245 287.713 214.462 287.794 215.68 287.875C221.3 288.342 227.307 289.579 233.069 292.217C233.069 292.217 233.089 292.217 233.089 292.238C233.11 292.238 233.13 292.258 233.13 292.258C233.15 292.258 233.15 292.278 233.15 292.278C233.171 292.298 233.171 292.298 233.191 292.319C233.191 292.339 233.211 292.339 233.211 292.359C233.231 292.38 233.231 292.4 233.231 292.4C233.231 292.42 233.252 292.42 233.252 292.44C233.252 292.461 233.272 292.481 233.272 292.501V292.522C234.794 301.734 235.748 307.354 236.336 310.763C236.011 310.398 235.666 310.053 235.321 309.708V309.688C234.652 305.893 233.759 300.516 232.623 293.678C232.582 293.414 232.542 293.13 232.481 292.846C226.86 290.33 221.037 289.113 215.558 288.666C214.584 288.585 213.61 288.524 212.657 288.504C212.312 288.484 211.967 288.484 211.601 288.484C209.288 288.443 207.056 288.524 204.987 288.666C204.642 288.687 204.276 288.727 203.931 288.748C202.673 288.869 201.476 288.991 200.36 289.153C197.966 289.478 195.734 289.904 193.766 290.33C193.745 290.33 193.725 290.351 193.685 290.351C188.977 291.406 185.731 292.562 184.878 292.867L184.757 293.638L182.545 307.801L182.362 308.917C182.038 309.221 181.713 309.505 181.409 309.83L184.128 292.501V292.481C184.128 292.461 184.128 292.44 184.148 292.42C184.148 292.4 184.168 292.4 184.168 292.38C184.168 292.359 184.188 292.339 184.188 292.339C184.188 292.319 184.209 292.319 184.209 292.298C184.229 292.278 184.229 292.278 184.249 292.258C184.27 292.258 184.27 292.238 184.29 292.238C184.31 292.217 184.331 292.217 184.331 292.217C184.331 292.217 184.351 292.217 184.351 292.197C184.391 292.177 187.942 290.797 193.461 289.559C193.502 289.559 193.543 289.539 193.583 289.539C195.551 289.092 197.783 288.687 200.198 288.342C201.537 288.159 202.998 287.997 204.52 287.875C204.966 287.875 205.332 287.834 205.697 287.814Z" fill="black" stroke="black"/>
<path d="M145.758 404.243L145.738 404.223L145.758 404.243Z" fill="black" stroke="black"/>
<path d="M145.799 404.304L145.779 404.283C145.799 404.283 145.799 404.304 145.799 404.304Z" fill="black" stroke="black"/>
<path d="M145.697 404.202L145.677 404.182C145.677 404.182 145.697 404.182 145.697 404.202Z" fill="black" stroke="black"/>
<path d="M145.637 404.162L145.617 404.142C145.617 404.142 145.637 404.142 145.637 404.162Z" fill="black" stroke="black"/>
<path d="M145.82 404.344C145.82 404.364 145.82 404.364 145.84 404.384C145.84 404.364 145.84 404.364 145.82 404.344Z" fill="black" stroke="black"/>
<path d="M145.555 404.121H145.535H145.555Z" fill="black" stroke="black"/>
<path d="M145.861 404.465C145.861 404.445 145.861 404.446 145.861 404.426C145.861 404.426 145.861 404.445 145.861 404.465Z" fill="black" stroke="black"/>
<path d="M261.66 408.159C261.66 408.179 261.66 408.179 261.66 408.199C261.66 408.199 261.66 408.199 261.66 408.159C261.66 408.179 261.66 408.179 261.66 408.159Z" fill="black"/>
<path d="M261.66 408.159C261.66 408.179 261.66 408.179 261.66 408.199C261.66 408.199 261.66 408.199 261.66 408.159ZM261.66 408.159C261.66 408.179 261.66 408.179 261.66 408.159Z" stroke="black"/>
<path d="M261.943 407.875H261.963C261.963 407.855 261.943 407.875 261.943 407.875Z" fill="black" stroke="black"/>
<path d="M261.802 407.936L261.822 407.916C261.822 407.936 261.802 407.936 261.802 407.936Z" fill="black" stroke="black"/>
<path d="M261.701 408.058L261.721 408.037C261.721 408.037 261.701 408.037 261.701 408.058Z" fill="black" stroke="black"/>
<path d="M261.863 407.895L261.883 407.875C261.883 407.895 261.883 407.895 261.863 407.895Z" fill="black" stroke="black"/>
<path d="M261.76 407.977L261.74 407.997C261.76 407.977 261.76 407.977 261.76 407.977Z" fill="black" stroke="black"/>
<path d="M261.66 408.118C261.66 408.098 261.66 408.098 261.68 408.078C261.68 408.098 261.68 408.118 261.66 408.118Z" fill="black" stroke="black"/>
<path d="M273.124 431.514H289.539L291.73 437.074L291.71 437.114H267.706C266.752 435.207 265.738 433.32 264.703 431.514H273.124Z" fill="white" stroke="black"/>
<path d="M276.411 465.176C275.924 459.069 274.037 451.825 270.851 444.074C269.999 442.004 269.065 439.935 268.092 437.926H291.264L276.411 465.176Z" fill="white" stroke="black"/>
<path d="M164.505 458.277C173.859 467.875 184.268 473.455 192.344 473.191C201.252 472.907 205.939 479.623 211.357 487.395C212.412 488.917 213.507 490.479 214.664 492.041L134.88 492.305L118.912 437.926H150.687C151.174 439.082 151.702 440.259 152.29 441.436C155.273 447.3 159.473 453.124 164.505 458.277Z" fill="white" stroke="black"/>
<path d="M148.66 431.514C149.066 433.32 149.654 435.207 150.385 437.114H119.076L122.302 431.514H135.065H146.915H148.66Z" fill="white" stroke="black"/>
<path d="M118.02 437.378C118.02 437.398 118.02 437.398 118 437.418C118 437.398 118 437.378 118.02 437.378Z" fill="black" stroke="black"/>
<path d="M118.386 437.926H118.934L134.903 492.305L214.686 492.041C214.889 492.305 215.092 492.589 215.295 492.853L166.536 493.015V492.711C166.536 492.488 166.353 492.305 166.13 492.305L150.242 492.265C150.1 492.265 149.958 492.346 149.898 492.467C149.816 492.589 149.816 492.752 149.898 492.873L149.999 493.076L134.598 493.117C134.416 493.117 134.253 492.995 134.213 492.833L118.021 437.642V437.621C118.041 437.784 118.203 437.926 118.386 437.926Z" fill="black" stroke="black"/>
<path d="M117.98 437.54C117.98 437.56 117.98 437.56 117.98 437.58C117.98 437.56 117.98 437.54 117.98 437.54Z" fill="black" stroke="black"/>
<path d="M118 437.459C118 437.479 118 437.479 118 437.499C117.98 437.479 117.98 437.459 118 437.459Z" fill="black" stroke="black"/>
<path d="M292.175 437.114H291.708L291.728 437.073L289.537 431.514H273.122C273.243 431.514 273.365 431.453 273.446 431.351C273.528 431.25 273.548 431.108 273.507 430.986L273.426 430.702H289.801C289.963 430.702 290.125 430.804 290.186 430.966L292.54 436.952C292.581 437.073 292.581 437.195 292.52 437.297V437.317C292.439 437.195 292.317 437.114 292.175 437.114Z" fill="black" stroke="black"/>
<path d="M148.66 431.514H146.915C147.017 431.514 147.138 431.473 147.22 431.392C147.301 431.311 147.341 431.209 147.321 431.088L147.301 430.702H148.498C148.538 430.966 148.599 431.23 148.66 431.514Z" fill="black" stroke="black"/>
<path d="M134.759 431.351C134.84 431.453 134.962 431.494 135.084 431.494H122.321L119.095 437.094H118.385C118.222 437.094 118.08 437.195 118.019 437.317V437.297L121.712 430.885C121.793 430.763 121.915 430.682 122.057 430.682H134.719L134.658 431.007C134.658 431.128 134.678 431.27 134.759 431.351Z" fill="black" stroke="black"/>
<path d="M264.683 431.514C264.663 431.473 264.642 431.453 264.622 431.412L273.104 431.514H264.683Z" fill="black" stroke="black"/>
<path d="M276.411 465.176L291.264 437.926H292.177C292.177 437.926 292.177 437.926 292.197 437.926L276.512 466.698C276.472 466.191 276.452 465.684 276.411 465.176Z" fill="black" stroke="black"/>
<path d="M291.264 437.926H268.092C267.95 437.662 267.828 437.378 267.686 437.114H291.69H292.157C292.299 437.114 292.441 437.195 292.502 437.317C292.542 437.378 292.562 437.439 292.562 437.52C292.562 437.743 292.38 437.926 292.177 437.926C292.177 437.926 292.177 437.926 292.157 437.926H291.264Z" fill="black" stroke="black"/>
<path d="M118.385 437.114H119.095H150.404C150.505 437.378 150.607 437.662 150.729 437.926H118.953H118.405C118.223 437.926 118.06 437.804 118.02 437.622C118.02 437.601 118.02 437.601 118.02 437.581C118.02 437.561 118.02 437.561 118.02 437.54V437.52V437.5C118.02 437.479 118.02 437.479 118.02 437.459C118.02 437.439 118.02 437.439 118.02 437.419C118.02 437.398 118.02 437.398 118.04 437.378C118.04 437.358 118.06 437.358 118.06 437.337C118.101 437.195 118.223 437.114 118.385 437.114Z" fill="black" stroke="black"/>
<path d="M165.723 493.117V506.387L165.073 508.193L163.044 493.117H165.723Z" fill="white" stroke="black"/>
<path d="M159.718 509.512L150.912 493.076L162.234 493.117L164.426 509.512H159.718Z" fill="white" stroke="black"/>
<path d="M165.116 510.263C165.136 510.263 165.136 510.242 165.116 510.263C165.136 510.242 165.136 510.263 165.116 510.263Z" fill="black" stroke="black"/>
<path d="M149.877 492.468C149.958 492.346 150.08 492.265 150.222 492.265L166.11 492.305C166.333 492.305 166.516 492.488 166.516 492.711V493.015V506.468C166.516 506.509 166.516 506.57 166.495 506.61L165.278 510.08C165.278 510.08 165.278 510.08 165.278 510.1C165.298 510.039 165.318 509.979 165.298 509.897L165.075 508.234L165.724 506.428V493.157H163.066L163.005 492.711C162.985 492.488 162.782 492.326 162.559 492.366C162.336 492.386 162.173 492.61 162.214 492.813L162.255 493.157L150.932 493.137L159.738 509.573H164.446L164.507 510.039C164.527 510.242 164.71 510.384 164.913 510.384H159.495C159.353 510.384 159.211 510.303 159.13 510.161L149.999 493.117L149.897 492.914C149.816 492.731 149.816 492.589 149.877 492.468Z" fill="black" stroke="black"/>
<path d="M164.486 509.978L164.425 509.512L162.213 493.096L162.173 492.752C162.153 492.528 162.295 492.325 162.518 492.305C162.741 492.285 162.944 492.427 162.964 492.65L163.025 493.096L165.054 508.193L165.277 509.857C165.277 509.918 165.277 509.999 165.257 510.06C165.237 510.1 165.237 510.121 165.196 510.161C165.176 510.181 165.156 510.222 165.115 510.242C165.115 510.242 165.095 510.242 165.095 510.263C165.074 510.283 165.034 510.303 164.993 510.303C164.993 510.303 164.993 510.303 164.973 510.303C164.953 510.303 164.932 510.323 164.912 510.323C164.892 510.323 164.872 510.323 164.851 510.323C164.689 510.323 164.527 510.181 164.486 509.978Z" fill="black" stroke="black"/>
<path d="M234.45 509.512L234.876 506.306C236.784 506.671 238.671 506.854 240.558 506.854H240.578L239.158 509.512H234.45Z" fill="white" stroke="black"/>
<path d="M233.17 506.387V505.92C233.393 505.981 233.617 506.042 233.86 506.083C233.941 506.103 234.022 506.123 234.104 506.123L233.819 508.173L233.17 506.387Z" fill="white" stroke="black"/>
<path d="M234.388 509.979L234.449 509.512H239.156L240.576 506.854C240.881 506.854 241.205 506.854 241.51 506.833L239.765 510.1C239.704 510.242 239.562 510.324 239.4 510.324H233.982C234.185 510.324 234.347 510.181 234.388 509.979Z" fill="black" stroke="black"/>
<path d="M233.739 510.242C233.739 510.242 233.76 510.263 233.739 510.242C233.76 510.263 233.739 510.242 233.739 510.242Z" fill="black" stroke="black"/>
<path d="M233.171 505.941V506.407L233.82 508.213L233.597 509.877C233.597 509.938 233.597 510.019 233.617 510.08C233.617 510.08 233.617 510.08 233.617 510.06L232.4 506.59C232.38 506.549 232.38 506.509 232.38 506.448V505.697C232.623 505.799 232.887 505.86 233.171 505.941Z" fill="black" stroke="black"/>
<path d="M233.576 509.877L233.8 508.213L234.084 506.164C234.347 506.225 234.611 506.286 234.875 506.326L234.449 509.532L234.388 509.999C234.368 510.202 234.185 510.344 233.982 510.344C233.962 510.344 233.942 510.344 233.921 510.344C233.901 510.344 233.881 510.344 233.86 510.323C233.86 510.323 233.86 510.323 233.84 510.323C233.8 510.303 233.779 510.303 233.739 510.283C233.739 510.283 233.718 510.283 233.718 510.263C233.698 510.242 233.658 510.222 233.637 510.181C233.617 510.161 233.597 510.121 233.576 510.08C233.576 509.999 233.576 509.938 233.576 509.877Z" fill="black" stroke="black"/>
<path d="M146.488 430.702H135.592L141.253 404.913H145.068L146.488 430.702Z" fill="white" stroke="black"/>
<path d="M145.534 404.121H145.554C145.574 404.121 145.594 404.121 145.594 404.142C145.594 404.142 145.615 404.142 145.615 404.162C145.635 404.162 145.635 404.182 145.655 404.182L145.676 404.202C145.696 404.202 145.696 404.223 145.716 404.223L145.736 404.243C145.736 404.263 145.757 404.263 145.757 404.284L145.777 404.304C145.777 404.324 145.797 404.324 145.797 404.345C145.797 404.365 145.797 404.365 145.818 404.385C145.818 404.405 145.818 404.405 145.838 404.426C145.838 404.446 145.838 404.446 145.838 404.466C145.838 404.487 145.838 404.487 145.838 404.507L147.136 428.125L147.279 430.723L147.299 431.108C147.299 431.21 147.258 431.331 147.197 431.413C147.137 431.494 147.015 431.534 146.893 431.534H135.063C134.942 431.534 134.82 431.473 134.739 431.392C134.658 431.291 134.637 431.169 134.658 431.047L134.719 430.723L140.501 404.446C140.542 404.263 140.704 404.121 140.907 404.121H145.391H145.432C145.473 404.101 145.513 404.121 145.534 404.121ZM141.252 404.913L135.591 430.682H146.487L145.067 404.913H141.252Z" fill="black" stroke="black"/>
<path d="M262.432 408.666H266.084L272.557 430.702L264.136 430.601C263.263 429.14 262.371 427.719 261.478 426.36C261.721 420.374 262.31 410.695 262.432 408.666Z" fill="white" stroke="black"/>
<path d="M273.449 431.352C273.368 431.453 273.246 431.514 273.124 431.514L264.643 431.412C264.48 431.149 264.318 430.865 264.156 430.601L272.576 430.702L266.104 408.666H262.451C262.329 410.695 261.741 420.374 261.498 426.36C261.254 425.974 260.99 425.609 260.726 425.244C261.031 418.629 261.619 408.829 261.66 408.24V408.22C261.66 408.2 261.66 408.2 261.66 408.179V408.159C261.66 408.159 261.66 408.159 261.66 408.139C261.66 408.119 261.66 408.118 261.68 408.098C261.68 408.078 261.7 408.078 261.7 408.058L261.721 408.037C261.721 408.017 261.741 408.017 261.741 407.997L261.761 407.976C261.782 407.956 261.782 407.956 261.802 407.956L261.822 407.936C261.842 407.936 261.842 407.916 261.863 407.916L261.883 407.895C261.903 407.895 261.924 407.875 261.924 407.875H261.944C261.964 407.875 262.005 407.875 262.025 407.875H262.573H266.388C266.57 407.875 266.733 407.997 266.773 408.159L273.408 430.723L273.489 431.007C273.55 431.108 273.51 431.25 273.449 431.352Z" fill="black" stroke="black"/>
<path d="M151.865 415.586C152.453 415.707 152.96 416.073 153.508 416.478C153.691 416.6 153.874 416.742 154.056 416.864C154.726 417.31 155.395 417.554 155.984 417.554C156.369 417.554 156.714 417.452 157.019 417.27C157.506 416.965 157.81 416.478 158.053 416.032C158.926 414.449 159.596 412.745 160.083 411C160.143 410.797 160.042 410.594 159.859 410.513C159.596 410.391 159.332 410.046 159.109 409.701C158.804 409.255 158.48 408.808 158.013 408.606C157.81 408.524 157.566 408.606 157.485 408.808C157.404 409.011 157.485 409.255 157.688 409.336C157.952 409.458 158.216 409.803 158.439 410.148C158.682 410.493 158.906 410.817 159.23 411.061C158.784 412.643 158.155 414.165 157.364 415.626C157.161 415.991 156.937 416.357 156.633 416.56C155.882 417.006 154.847 416.377 154.543 416.174C154.381 416.052 154.198 415.931 154.016 415.809C153.427 415.383 152.818 414.936 152.047 414.774C151.885 414.733 151.723 414.733 151.56 414.713C151.195 414.673 150.87 414.632 150.688 414.449C150.688 414.449 150.688 414.449 150.668 414.429C152.189 410.452 154.34 407.895 156.349 405.521C159.433 401.869 162.112 398.704 161.645 391.784C161.746 392.069 161.828 392.353 161.888 392.637C161.929 392.84 161.97 393.022 161.99 393.225C162.132 394.057 162.274 394.909 162.862 395.559C163.025 395.721 163.268 395.741 163.431 395.579C163.593 395.417 163.613 395.173 163.451 395.011C163.004 394.544 162.903 393.834 162.781 393.103C162.741 392.9 162.72 392.677 162.68 392.474C162.477 391.48 162.051 390.526 161.462 389.694C160.488 380.482 157.708 372.123 156.106 367.841C154.381 363.276 153.813 358.406 154.442 353.719C155.071 349.052 158.581 344.446 163.025 338.622C167.063 333.347 172.074 326.773 176.559 317.987C183.173 305.061 195.449 301.713 206.346 301.713C216.613 301.713 225.622 304.676 227.489 305.325C236.944 308.633 245.121 323.932 247.698 333.225C250.762 344.324 250.133 355.971 245.872 367.882C245.426 369.14 245.02 370.418 244.655 371.696C244.594 371.717 244.553 371.757 244.492 371.778C244.31 371.899 244.229 372.143 244.35 372.326C244.371 372.366 244.411 372.407 244.452 372.427C242.037 381.314 241.753 390.486 243.661 399.231C243.742 399.617 243.823 400.002 243.904 400.367C244.432 402.823 244.837 404.75 245.649 406.698C243.214 407.977 240.292 408.24 237.878 407.226C237.675 407.145 237.431 407.246 237.35 407.449C237.269 407.652 237.37 407.895 237.573 407.977C238.669 408.443 239.866 408.646 241.063 408.646C242.747 408.646 244.452 408.22 245.974 407.429C247.232 410.148 249.362 413.07 253.704 417.696C266.975 431.839 277.384 457.588 275.517 471.751C274.401 480.354 268.334 492.995 257.681 500.442C250.478 505.474 242.321 507.138 234.043 505.291C223.146 502.836 217.506 494.74 212.047 486.928C206.731 479.279 201.699 472.075 192.345 472.38C184.472 472.643 174.306 467.165 165.115 457.709C154.624 446.935 148.212 433.705 148.781 424.027C149.004 420.455 149.592 417.594 150.404 415.22C150.749 415.423 151.134 415.464 151.479 415.504C151.601 415.545 151.743 415.545 151.865 415.586ZM178.162 401.707C178.162 403.269 179.42 404.527 180.982 404.527C182.544 404.527 183.803 403.269 183.803 401.707C183.803 400.144 182.544 398.886 180.982 398.886C179.42 398.886 178.162 400.144 178.162 401.707ZM177.208 390.628C177.208 388.315 175.341 386.428 173.008 386.428C170.695 386.428 168.808 388.294 168.808 390.628C168.808 392.941 170.674 394.828 173.008 394.828C175.321 394.808 177.208 392.941 177.208 390.628ZM191.98 324.419C192.791 323.932 194.638 322.288 193.928 321.152C193.481 320.401 191.046 320.584 190.275 320.604C187.475 320.685 185.365 321.964 183.214 323.79C180.17 326.367 177.391 329.248 174.915 332.393C173.596 334.077 172.318 336.39 173.393 338.237C173.677 338.724 174.225 339.17 174.793 339.028C175.077 338.947 175.301 338.744 175.504 338.521C177.025 336.898 177.979 334.848 179.237 333.022C181.53 329.694 184.878 327.118 188.672 325.738C189.809 325.312 190.965 325.007 191.98 324.419ZM244.675 492.265C250.397 493.523 256.261 490.297 260.279 486.035C262.957 483.195 265.108 479.786 266.143 476.032C266.67 474.084 266.812 459.495 262.003 462.255C260.38 463.188 261.212 466.942 261.232 468.362C261.253 471.568 260.461 474.693 258.757 477.432C256.038 481.774 251.391 484.737 246.4 485.873C245.284 486.117 244.127 486.299 243.133 486.867C242.139 487.415 241.327 488.491 241.449 489.607C241.611 491.088 243.234 491.94 244.675 492.265Z" fill="black" stroke="black"/>
<path d="M171.69 324.946C171.852 324.683 172.014 324.399 172.197 324.135C173.435 322.106 174.652 319.935 175.849 317.621C177.371 314.659 179.258 312.062 181.49 309.85C181.795 309.546 182.119 309.241 182.444 308.937C182.748 308.673 183.053 308.409 183.357 308.146C184.432 307.253 185.569 306.461 186.786 305.731C190.824 303.316 195.592 301.795 201.01 301.165C212.657 299.847 223.594 303.093 227.774 304.554C229.985 305.325 232.055 306.705 233.942 308.348C234.449 308.795 234.916 309.241 235.383 309.708C235.728 310.053 236.073 310.398 236.397 310.763C238.102 312.63 239.583 314.618 240.76 316.404C242.342 318.798 243.824 321.436 245.102 324.114C245.224 324.378 245.366 324.662 245.488 324.926C246.746 327.686 247.78 330.445 248.491 333.002C249.099 335.173 249.546 337.385 249.87 339.596C249.911 339.86 249.952 340.144 249.992 340.408C251.149 349.397 250.033 358.69 246.644 368.125C246.279 369.16 245.934 370.195 245.63 371.25C245.305 371.352 244.98 371.494 244.656 371.676C245.021 370.398 245.427 369.14 245.873 367.862C250.134 355.971 250.763 344.304 247.699 333.205C245.143 323.912 236.945 308.612 227.49 305.305C225.623 304.656 216.593 301.693 206.347 301.693C195.45 301.693 183.174 305.021 176.56 317.966C172.075 326.752 167.063 333.326 163.026 338.602C158.582 344.426 155.072 349.032 154.443 353.698C153.814 358.386 154.402 363.276 156.106 367.821C157.73 372.123 160.489 380.462 161.463 389.674C161.179 389.289 160.875 388.903 160.53 388.578C159.454 379.935 156.877 372.183 155.356 368.105C153.59 363.418 153.002 358.406 153.631 353.577C154.138 349.782 156.411 346.11 159.515 341.889C159.678 341.666 159.84 341.463 160.002 341.24C160.753 340.225 161.544 339.191 162.376 338.095C165.156 334.463 168.443 330.161 171.69 324.946Z" fill="black" stroke="black"/>
<path d="M214.686 492.042C213.529 490.499 212.433 488.917 211.378 487.395C205.961 479.624 201.273 472.907 192.366 473.191C184.27 473.455 173.86 467.875 164.527 458.278C159.494 453.103 155.274 447.28 152.332 441.436C151.743 440.259 151.196 439.082 150.729 437.926C150.607 437.662 150.506 437.378 150.404 437.114C149.653 435.207 149.085 433.32 148.679 431.514C148.619 431.25 148.558 430.966 148.497 430.702C148.03 428.349 147.848 426.096 147.969 424.006C148.192 420.11 148.862 417.026 149.795 414.51C149.877 414.693 149.978 414.896 150.12 415.038C150.201 415.119 150.303 415.2 150.384 415.241C149.572 417.615 148.984 420.476 148.761 424.047C148.192 433.726 154.584 446.935 165.095 457.73C174.286 467.165 184.452 472.643 192.325 472.4C201.679 472.096 206.711 479.319 212.027 486.949C217.486 494.781 223.127 502.877 234.023 505.312C242.281 507.179 250.458 505.494 257.662 500.462C268.314 493.016 274.381 480.374 275.497 471.771C277.344 457.628 266.935 431.859 253.685 417.716C249.342 413.09 247.212 410.168 245.954 407.449C246.197 407.327 246.42 407.206 246.664 407.063C247.881 409.742 249.971 412.562 254.293 417.168C256.485 419.502 258.656 422.241 260.726 425.244C260.989 425.609 261.233 425.995 261.497 426.36C262.41 427.72 263.302 429.14 264.155 430.601C264.317 430.865 264.479 431.149 264.642 431.412C264.662 431.453 264.682 431.473 264.703 431.514C265.758 433.32 266.752 435.187 267.706 437.114C267.848 437.378 267.969 437.662 268.111 437.926C269.085 439.935 270.019 441.984 270.871 444.074C274.057 451.825 275.944 459.089 276.431 465.176C276.471 465.704 276.512 466.211 276.532 466.698C276.613 468.545 276.552 470.29 276.329 471.872C275.193 480.638 269.004 493.543 258.149 501.132C252.995 504.723 247.354 506.651 241.551 506.834C241.246 506.834 240.922 506.854 240.617 506.854H240.597C238.71 506.854 236.823 506.671 234.916 506.306C234.652 506.265 234.388 506.205 234.124 506.144C234.043 506.123 233.962 506.103 233.881 506.103C233.658 506.042 233.434 506.002 233.191 505.941C232.927 505.88 232.643 505.799 232.379 505.718C224.669 503.526 219.535 498.372 215.315 492.853C215.091 492.589 214.888 492.305 214.686 492.042Z" fill="black" stroke="black"/>
<path d="M156.35 405.542C154.341 407.916 152.191 410.472 150.669 414.449C150.506 414.287 150.466 414.003 150.405 413.678C150.385 413.496 150.344 413.293 150.324 413.11C151.846 409.62 153.854 407.246 155.721 405.034C158.745 401.443 161.362 398.359 160.814 391.46C160.774 390.973 160.733 390.506 160.672 390.019C161.078 390.567 161.423 391.155 161.646 391.805C162.113 398.724 159.434 401.889 156.35 405.542Z" fill="black" stroke="black"/>
<path d="M244.88 372.468C245.022 372.386 245.164 372.305 245.306 372.244C242.83 381.132 242.506 390.324 244.413 399.069C244.494 399.454 244.575 399.84 244.656 400.205C245.164 402.599 245.57 404.446 246.32 406.313C246.097 406.455 245.854 406.597 245.61 406.719C244.798 404.75 244.393 402.843 243.865 400.388C243.784 400.023 243.703 399.637 243.622 399.251C241.714 390.506 241.998 381.335 244.413 372.447C244.555 372.549 244.738 372.569 244.88 372.468Z" fill="black" stroke="black"/>
<path d="M135.53 296.458C135.205 296.661 134.799 296.742 134.394 296.742C133.947 296.742 133.481 296.62 133.014 296.397C131.025 295.383 130.396 292.927 130.66 291.061C130.944 289.052 132.04 287.286 133.014 285.704C133.338 285.176 133.805 284.425 134.556 284.06C134.536 283.979 134.515 283.898 134.495 283.796C134.272 282.701 134.678 281.646 135.489 281.118C136.301 280.591 137.417 280.672 138.33 281.301C138.858 281.666 139.223 282.153 139.405 282.68C139.547 283.086 139.588 283.512 139.487 283.918C139.446 284.081 139.304 284.202 139.142 284.223C139.101 284.223 139.04 284.223 139 284.223C138.776 284.182 138.655 283.959 138.695 283.736C138.878 282.985 138.35 282.315 137.863 281.97C137.376 281.625 136.565 281.382 135.915 281.808C135.266 282.234 135.165 283.066 135.286 283.654C135.307 283.736 135.327 283.796 135.347 283.878C135.794 283.898 136.26 284.081 136.565 284.425C136.91 284.791 137.011 285.237 136.869 285.663C136.808 285.846 136.605 285.968 136.402 285.927C135.773 285.805 135.226 285.399 134.86 284.811C134.394 285.054 134.028 285.582 133.683 286.15C132.75 287.652 131.695 289.356 131.431 291.182C131.208 292.765 131.715 294.855 133.338 295.687C133.825 295.93 134.515 296.072 135.063 295.768C135.286 295.646 135.469 295.443 135.672 295.22L137.701 293.029C137.802 292.927 137.924 292.887 138.046 292.907C138.127 292.927 138.208 292.948 138.269 293.008C138.431 293.171 138.452 293.414 138.289 293.577L137.985 293.922L136.26 295.788C136.098 295.991 135.855 296.255 135.53 296.458Z" fill="black" stroke="black"/>
<path d="M117.615 291.69C117.899 292.785 117.493 293.841 117.087 294.835C116.884 295.342 116.681 295.89 116.58 296.397C116.194 298.345 117.27 300.273 118.305 302.139C118.426 302.342 118.528 302.545 118.65 302.748C119.786 304.818 120.8 307.74 119.218 309.87C118.812 310.418 118.305 310.824 117.797 311.209C117.594 311.372 117.371 311.534 117.189 311.717C115.018 313.624 114.084 316.871 114.957 319.63C115.099 320.077 115.261 320.503 115.464 320.949C115.707 321.538 115.971 322.146 116.113 322.796C116.641 324.967 115.931 327.381 114.307 328.923C113.11 330.06 111.467 330.689 109.823 330.689C109.377 330.689 108.93 330.648 108.504 330.547C108.362 330.526 108.22 330.486 108.098 330.445C107.875 330.384 107.753 330.161 107.814 329.938C107.875 329.715 108.098 329.593 108.322 329.654C108.382 329.674 108.443 329.674 108.504 329.694C110.351 330.161 112.38 329.634 113.759 328.315C115.18 326.955 115.789 324.865 115.342 322.958C115.2 322.369 114.977 321.822 114.733 321.233C114.551 320.787 114.348 320.32 114.206 319.853C113.252 316.789 114.267 313.198 116.681 311.088C116.884 310.905 117.107 310.723 117.331 310.56C117.818 310.175 118.264 309.83 118.609 309.363C120.009 307.456 118.832 304.635 118 303.113C117.899 302.911 117.777 302.708 117.655 302.505C116.6 300.618 115.403 298.467 115.829 296.215C115.951 295.626 116.154 295.058 116.377 294.51C116.702 293.678 117.006 292.907 116.905 292.136C116.884 292.035 116.884 291.953 116.864 291.852C116.803 291.629 116.945 291.406 117.168 291.365C117.209 291.365 117.25 291.345 117.27 291.345C117.392 291.385 117.554 291.507 117.615 291.69Z" fill="black" stroke="black"/>
<path d="M144.278 326.143C142.695 327.097 139.976 329.146 139.529 332.231C139.327 333.631 139.793 335.193 140.767 336.289C141.518 337.161 142.492 337.628 143.506 337.628C143.527 337.628 143.527 337.628 143.547 337.628C143.73 337.628 144.176 337.588 144.318 337.344C144.399 337.202 144.42 336.999 144.42 336.756L144.501 333.631C144.501 333.509 144.562 333.387 144.663 333.326C144.765 333.245 144.886 333.225 145.008 333.245C145.617 333.387 146.307 333.57 146.895 333.387C147.179 333.306 147.463 333.063 147.605 332.799C147.666 332.677 147.727 332.474 147.666 332.292C147.585 332.068 147.382 331.845 147.199 331.622C146.834 331.196 146.327 330.607 146.712 329.938C146.834 329.735 147.078 329.674 147.26 329.796C147.463 329.918 147.524 330.161 147.402 330.344C147.321 330.486 147.423 330.668 147.788 331.094C148.031 331.358 148.295 331.663 148.417 332.028C148.539 332.393 148.518 332.799 148.315 333.184C148.072 333.651 147.626 334.016 147.118 334.179C146.489 334.361 145.86 334.3 145.292 334.179L145.231 336.796C145.231 337.08 145.211 337.466 145.008 337.811C144.744 338.237 144.237 338.46 143.547 338.46C143.527 338.46 143.527 338.46 143.506 338.46C142.269 338.46 141.072 337.892 140.158 336.837C139.042 335.558 138.495 333.753 138.738 332.129C139.245 328.7 142.167 326.488 143.872 325.454C144.034 325.352 144.257 325.393 144.379 325.535C144.399 325.555 144.42 325.575 144.42 325.596C144.44 325.616 144.44 325.636 144.44 325.656C144.521 325.839 144.46 326.042 144.278 326.143Z" fill="black" stroke="black"/>
<path d="M120.881 351.588C121.124 351.284 121.408 350.919 121.855 350.695C122.889 350.188 123.863 350.817 124.736 351.385C124.959 351.527 125.182 351.669 125.406 351.791C126.866 352.582 128.51 352.359 130.235 352.116C132.041 351.872 133.928 351.608 135.592 352.582C138.29 354.165 138.919 358.406 138.351 361.673C137.925 364.168 132.933 371.94 129.098 372.772C128.875 372.812 128.652 372.853 128.429 372.853C127.516 372.853 126.724 372.407 126.136 371.534C125.669 370.864 125.649 370.032 125.69 369.241C125.71 369.018 125.71 368.795 125.73 368.551C125.832 366.745 125.953 364.899 124.837 363.681C124.188 362.971 123.234 362.626 122.22 362.281C121.226 361.936 120.171 361.571 119.399 360.8C118.243 359.664 117.837 357.736 118.365 355.869C118.831 354.287 119.826 352.948 120.881 351.588ZM119.988 360.252C120.637 360.902 121.55 361.206 122.524 361.551C123.579 361.916 124.675 362.302 125.466 363.174C126.806 364.635 126.684 366.766 126.562 368.632C126.542 368.856 126.542 369.079 126.522 369.302C126.481 369.951 126.501 370.621 126.826 371.088C127.374 371.899 128.064 372.183 128.956 372.001C132.345 371.27 137.195 363.783 137.58 361.551C138.006 359.055 137.742 354.794 135.206 353.313C134.435 352.866 133.603 352.724 132.731 352.724C131.959 352.724 131.168 352.826 130.357 352.948C128.571 353.191 126.724 353.455 125.02 352.521C124.777 352.4 124.533 352.237 124.31 352.095C123.559 351.608 122.829 351.142 122.22 351.446C121.976 351.568 121.773 351.811 121.53 352.116C120.536 353.394 119.582 354.672 119.176 356.133C118.71 357.696 119.034 359.319 119.988 360.252Z" fill="black" stroke="black"/>
<path d="M274.705 385.981C274.441 384.885 274.583 383.79 274.705 382.714L274.746 382.349C274.948 380.685 275.03 378.737 274.279 377.053C274.076 376.586 273.812 376.16 273.528 375.694C273.305 375.328 273.061 374.943 272.879 374.537C271.519 371.798 272.067 368.328 274.116 366.441C275.253 365.406 276.896 364.919 278.52 365.102C279.981 365.284 281.239 366.015 281.989 367.111C282.03 367.192 282.091 367.253 282.131 367.334C282.253 367.537 282.375 367.74 282.537 367.861C282.801 368.085 283.126 368.145 283.511 368.044C284.16 367.861 284.81 367.212 285.033 366.522C285.236 365.893 285.256 365.244 285.297 364.554C285.337 363.864 285.378 363.134 285.581 362.423C286.088 360.699 287.711 359.339 289.497 359.136C290.39 359.035 291.161 359.238 291.688 359.725C292.175 360.171 292.358 360.8 292.5 361.409C292.987 363.519 293.028 365.711 292.622 367.841C292.541 368.247 292.459 368.653 292.358 369.059C292.297 369.282 292.074 369.403 291.871 369.343C291.871 369.343 291.871 369.343 291.851 369.343C291.648 369.282 291.526 369.059 291.567 368.856C292.196 366.502 292.236 363.986 291.709 361.612C291.607 361.125 291.445 360.638 291.141 360.333C290.694 359.907 289.984 359.928 289.619 359.968C288.137 360.151 286.819 361.267 286.392 362.687C286.21 363.296 286.169 363.945 286.149 364.615C286.108 365.325 286.068 366.076 285.845 366.786C285.54 367.74 284.688 368.572 283.775 368.835C283.126 369.018 282.517 368.896 282.05 368.47C281.807 368.267 281.644 368.003 281.502 367.76C281.462 367.699 281.421 367.618 281.36 367.557C280.752 366.644 279.717 366.055 278.459 365.913C277.059 365.751 275.659 366.177 274.705 367.029C272.899 368.673 272.453 371.737 273.65 374.152C273.832 374.517 274.056 374.882 274.279 375.247C274.563 375.714 274.847 376.181 275.07 376.688C275.902 378.555 275.801 380.624 275.598 382.41L275.557 382.795C275.435 383.79 275.314 384.825 275.537 385.778C275.76 386.691 276.45 387.706 277.485 387.807C277.586 387.807 277.667 387.868 277.728 387.929C277.809 388.01 277.85 388.132 277.85 388.254C277.83 388.457 277.647 388.619 277.444 388.619C277.424 388.619 277.424 388.619 277.404 388.619C277.262 388.599 277.14 388.578 277.018 388.558C275.76 388.233 274.948 387.056 274.705 385.981Z" fill="black" stroke="black"/>
<path d="M282.07 331.967C283.146 332.089 284.16 331.561 285.317 330.912C286.433 330.283 287.387 329.694 287.874 328.781C288.523 327.544 288.158 326.083 287.772 324.561C287.549 323.709 287.326 322.836 287.285 321.943C287.163 319.671 288.32 317.398 290.248 316.181C290.349 316.12 290.451 316.059 290.552 315.998C290.897 315.795 291.222 315.592 291.425 315.308C291.729 314.902 291.769 314.314 291.769 313.807C291.83 312.123 291.648 310.418 291.262 308.775C291.161 308.308 291.019 307.801 290.714 307.435C290.126 306.725 289.01 306.705 288.239 306.989C287.305 307.334 286.514 308.085 285.824 308.734C285.662 308.896 285.398 308.876 285.256 308.714C285.094 308.551 285.114 308.288 285.276 308.146C286.027 307.435 286.879 306.624 287.975 306.218C289.01 305.832 290.491 305.893 291.343 306.908C291.769 307.415 291.932 308.044 292.074 308.592C292.48 310.296 292.642 312.062 292.601 313.827C292.581 314.517 292.5 315.207 292.094 315.775C291.79 316.181 291.384 316.424 290.978 316.668C290.877 316.729 290.795 316.789 290.694 316.85C289.05 317.905 287.995 319.935 288.117 321.903C288.158 322.694 288.381 323.546 288.584 324.358C288.99 325.961 289.416 327.625 288.604 329.167C287.975 330.384 286.676 331.115 285.743 331.642C284.647 332.251 283.572 332.819 282.395 332.819C282.273 332.819 282.152 332.819 282.01 332.799C280.204 332.616 278.743 329.816 277.688 327.767C277.606 327.604 277.525 327.442 277.444 327.3C277.343 327.118 277.241 326.935 277.16 326.773C277.099 326.671 277.099 326.549 277.119 326.448C277.14 326.367 277.201 326.286 277.302 326.225C277.505 326.123 277.748 326.184 277.85 326.387C277.891 326.468 277.931 326.549 277.992 326.631C278.114 326.874 278.256 327.138 278.398 327.402C279.25 329.025 280.691 331.825 282.07 331.967Z" fill="black" stroke="black"/>
<path d="M237.533 407.977C237.33 407.895 237.228 407.652 237.31 407.449C237.391 407.246 237.634 407.145 237.837 407.226C240.272 408.24 243.174 407.977 245.608 406.698C245.852 406.577 246.075 406.434 246.319 406.292C247.272 405.704 248.125 404.953 248.814 404.06C251.249 400.956 251.858 396.33 250.357 392.312C250.133 391.724 249.87 391.115 249.626 390.547C248.652 388.335 247.658 386.022 248.53 383.749C248.936 382.714 249.667 381.883 250.377 381.091C250.925 380.482 251.452 379.894 251.838 379.204C252.913 377.297 252.528 374.7 250.945 373.178C249.484 371.757 247.151 371.412 245.324 372.244C245.182 372.305 245.04 372.386 244.898 372.468C244.756 372.549 244.574 372.528 244.432 372.427C244.391 372.407 244.371 372.366 244.33 372.326C244.208 372.143 244.269 371.879 244.472 371.778C244.533 371.737 244.574 371.717 244.635 371.697C244.939 371.534 245.264 371.392 245.608 371.27C247.617 370.621 249.991 371.108 251.513 372.589C253.339 374.355 253.786 377.378 252.548 379.61C252.122 380.361 251.554 381.01 250.986 381.639C250.296 382.41 249.626 383.141 249.281 384.054C248.53 386.022 249.464 388.152 250.377 390.242C250.641 390.831 250.904 391.46 251.128 392.048C252.731 396.35 252.081 401.26 249.464 404.588C248.672 405.582 247.719 406.414 246.643 407.064C246.42 407.206 246.177 407.327 245.933 407.449C244.391 408.24 242.687 408.666 241.023 408.666C239.826 408.666 238.628 408.443 237.533 407.977Z" fill="black" stroke="black"/>
<path d="M148.438 401.869C148.336 400.002 148.438 397.385 150.305 396.228C150.589 396.046 150.893 395.924 151.197 395.802C151.522 395.66 151.826 395.538 152.09 395.356C153.227 394.524 153.247 392.779 153.247 391.237V391.155C153.247 389.999 153.511 387.26 155.601 386.712C156.148 386.57 156.757 386.61 157.488 386.834C158.624 387.178 159.659 387.807 160.511 388.619C160.856 388.964 161.181 389.329 161.444 389.715C162.033 390.547 162.459 391.5 162.662 392.495C162.702 392.698 162.743 392.9 162.763 393.124C162.885 393.874 163.007 394.564 163.433 395.031C163.595 395.193 163.575 395.457 163.413 395.599C163.25 395.761 162.986 395.741 162.844 395.579C162.236 394.93 162.094 394.077 161.972 393.245C161.931 393.043 161.911 392.84 161.87 392.657C161.81 392.373 161.728 392.089 161.627 391.805C161.404 391.176 161.059 390.567 160.653 390.019C159.801 388.883 158.604 388.01 157.244 387.605C156.635 387.422 156.189 387.381 155.783 387.483C154.18 387.889 154.038 390.405 154.038 391.155V391.237C154.018 392.88 154.018 394.95 152.537 396.005C152.212 396.248 151.847 396.39 151.482 396.553C151.197 396.675 150.934 396.776 150.71 396.918C149.209 397.851 149.128 400.043 149.229 401.828C149.412 405.582 149.797 409.356 150.325 413.09C150.345 413.272 150.386 413.475 150.406 413.658C150.447 413.983 150.508 414.267 150.67 414.429C150.67 414.429 150.67 414.429 150.69 414.449C150.873 414.632 151.197 414.673 151.563 414.713C151.725 414.733 151.887 414.754 152.05 414.774C152.821 414.916 153.429 415.362 154.018 415.809C154.201 415.931 154.363 416.052 154.545 416.174C154.85 416.377 155.905 417.006 156.635 416.56C156.96 416.377 157.163 415.991 157.366 415.626C158.157 414.186 158.786 412.643 159.233 411.061C158.908 410.817 158.685 410.472 158.441 410.148C158.198 409.803 157.954 409.438 157.691 409.336C157.488 409.255 157.386 409.011 157.488 408.808C157.569 408.606 157.812 408.504 158.015 408.606C158.502 408.808 158.807 409.275 159.111 409.701C159.354 410.046 159.598 410.411 159.862 410.513C160.044 410.594 160.146 410.797 160.085 411C159.618 412.745 158.928 414.449 158.056 416.032C157.812 416.478 157.528 416.965 157.021 417.27C156.717 417.452 156.372 417.554 155.986 417.554C155.398 417.554 154.728 417.331 154.058 416.864C153.876 416.742 153.693 416.6 153.511 416.478C152.963 416.073 152.455 415.707 151.867 415.586C151.745 415.565 151.603 415.545 151.461 415.525C151.116 415.484 150.731 415.444 150.386 415.241C150.284 415.18 150.203 415.119 150.122 415.038C149.96 414.875 149.858 414.693 149.797 414.51C149.696 414.267 149.655 414.003 149.635 413.8C149.047 409.843 148.641 405.846 148.438 401.869Z" fill="black" stroke="black"/>
<path d="M77.9265 159.901C79.1643 157.161 81.5789 154.929 84.5211 154.158C85.0892 154.016 85.6776 154.341 85.84 154.909C86.3472 156.634 84.5616 158.135 82.8978 157.77C81.8833 158.683 81.0513 159.799 80.4426 161.077C79.9759 162.051 79.6716 163.147 79.6107 164.243C79.5295 165.399 79.8136 166.82 79.3875 167.895C79.2049 168.342 78.657 168.707 78.1903 168.382C76.9729 167.53 76.7294 165.765 76.7903 164.365C76.8714 162.802 77.2772 161.301 77.9265 159.901Z" fill="black" stroke="black"/>
<path d="M42.0526 66.7047C41.9512 68.4903 41.7077 70.2759 41.4642 72.0615C41.3222 73.0964 41.2004 74.1515 41.0584 75.1863C40.9164 76.3835 40.5917 77.5198 40.4497 78.7169C40.3888 79.2648 39.5163 79.3053 39.5569 78.7169C39.6786 77.0936 39.638 75.4501 39.7598 73.8268C39.8815 72.1427 40.0236 70.4788 40.1656 68.7947C40.3482 66.583 40.4091 64.3104 39.983 62.1393C39.8409 61.4291 39.638 60.6986 39.3742 60.0291C38.8873 58.8116 38.1162 57.7159 36.9596 57.026C34.7073 55.7071 31.9681 56.4173 29.9999 57.9188C27.3824 59.9073 26.0837 63.235 24.8866 66.1772C24.4605 67.2323 22.6343 67.2323 22.7155 65.8931C23.0604 60.232 17.8051 54.794 12.0425 55.423C9.3438 55.7071 6.88858 57.3912 5.32619 59.5826C3.64205 61.9567 3.27681 64.4727 3.50001 67.3135C3.60147 68.5309 1.79561 68.6729 1.45066 67.5975C-0.172604 62.6263 3.41886 56.8028 7.70023 54.4491C12.5903 51.791 18.5355 53.3331 22.0256 57.5536C23.0807 58.8319 23.9126 60.2725 24.3996 61.8349C25.2518 60.1102 26.2663 58.4869 27.6461 57.1477C29.7361 55.0984 32.7797 53.7998 35.7219 54.3476C38.2177 54.8143 39.7801 56.3361 40.754 58.3246C41.9512 60.8204 42.1744 64.0669 42.0526 66.7047Z" fill="black" stroke="black"/>
<path d="M178.974 44.7905C179.177 44.3644 179.827 44.0803 180.273 44.2629C180.861 44.4861 181.572 44.3441 182.16 44.547C182.201 44.4861 182.201 44.4253 182.18 44.3238C182.059 43.776 182.87 43.3701 183.114 43.918C183.438 44.6282 183.256 45.1963 182.728 45.6833C182.444 46.3732 181.612 46.5964 180.801 46.5964C180.476 47.6921 180.212 48.8081 180.09 49.9444C179.948 51.243 180.111 52.7648 179.482 53.962C179.259 54.3678 178.589 54.4895 178.264 54.1243C177.25 52.9068 177.351 51.0807 177.534 49.5791C177.757 47.9153 178.203 46.3123 178.974 44.7905Z" fill="black" stroke="black"/>
<path d="M292.297 73.2383C294.651 69.6265 293.292 64.0465 289.315 62.1798C286.413 60.8203 283.004 61.916 280.914 64.148C280.732 65.7307 280.062 67.2119 278.824 68.3076C278.317 68.754 277.668 68.3076 277.749 67.6786C277.972 66.1568 278.662 64.777 279.656 63.6407C279.737 62.403 279.453 61.1246 278.865 60.0086C277.404 57.2694 274.401 55.707 271.54 54.8954C265.189 53.0895 258.675 54.3881 253.035 57.6346C252.101 58.1622 251.31 56.7824 252.203 56.2143C256.971 53.1098 263.058 52.0952 268.638 52.8866C273.569 53.5764 279.616 56.0113 280.772 61.429C280.833 61.7537 280.894 62.0986 280.935 62.4233C283.369 60.4956 286.778 59.7449 289.7 61.0435C294.326 63.1131 296.132 69.6265 293.19 73.7455C292.805 74.2731 291.932 73.7861 292.297 73.2383Z" fill="black" stroke="black"/>
<path d="M354.065 365.487C353.497 365.954 352.523 365.548 352.746 364.716C353.74 361.084 354.877 356.519 352.036 353.374C350.94 352.156 349.317 351.446 347.694 351.974C346.091 352.522 344.792 354.003 344.995 355.768C345.036 356.133 344.467 356.194 344.366 355.849C343.818 354.064 344.731 352.319 346.253 351.324C347.998 350.188 350.189 350.31 351.894 351.466C355.769 354.084 355.648 358.771 354.795 362.91C356.317 361.815 357.961 360.902 359.868 360.719C362.141 360.516 364.271 361.571 365.773 363.235C365.793 363.255 365.793 363.255 365.813 363.276C367.437 365.122 368.269 367.435 368.37 369.87C368.512 372.873 367.842 376.242 366.442 378.9C366.199 379.366 365.387 379.163 365.428 378.636C365.651 376.059 366.605 373.624 366.686 371.027C366.747 368.856 366.3 366.745 365.022 364.96C364.738 364.574 364.413 364.209 364.068 363.884C363.013 362.91 361.674 362.281 360.193 362.322C357.839 362.444 355.81 364.087 354.065 365.487Z" fill="black" stroke="black"/>
<path d="M98.6825 324.135C98.7839 318.778 99.2506 313.847 99.839 309.708C101.462 298.244 104.202 290.208 104.222 290.127C104.303 289.924 104.526 289.803 104.729 289.884C104.932 289.965 105.054 290.188 104.973 290.391C104.952 290.472 102.233 298.447 100.63 309.83C100.062 313.928 99.5753 318.819 99.4941 324.135C99.4941 324.399 99.4941 324.683 99.4738 324.946C99.3926 333.022 100.225 342.052 102.903 350.817C102.964 351.04 102.842 351.264 102.639 351.325C102.599 351.345 102.558 351.345 102.517 351.345C102.335 351.345 102.193 351.223 102.132 351.061C99.4129 342.214 98.581 333.103 98.6622 324.967C98.6824 324.662 98.6825 324.399 98.6825 324.135Z" fill="black" stroke="black"/>
<path d="M399.577 272.799C399.537 271.236 401.951 271.236 401.992 272.799C402.073 276.167 401.748 279.515 401.038 282.802C400.713 284.324 398.38 283.675 398.705 282.153C399.374 279.069 399.638 275.944 399.577 272.799Z" fill="black" stroke="black"/>
</svg>
