<svg id="Слой_1" data-name="Слой 1" xmlns="http://www.w3.org/2000/svg" viewBox="0 0 640.89 546.15">
  <defs>
    <style>
      .cls-1, .cls-4, .cls-5, .cls-6, .cls-7, .cls-8 {
        fill: none;
      }

      .cls-1, .cls-3, .cls-4, .cls-8 {
        stroke: #fff;
      }

      .cls-1, .cls-3, .cls-4, .cls-5, .cls-6, .cls-7, .cls-8 {
        stroke-linecap: round;
        stroke-linejoin: round;
      }

      .cls-1, .cls-3, .cls-5 {
        stroke-width: 2px;
      }

      .cls-2, .cls-3 {
        fill: #fff;
      }

      .cls-4, .cls-7 {
        stroke-width: 1.5px;
      }

      .cls-5, .cls-6, .cls-7 {
        stroke: #000;
      }
    </style>
  </defs>
  <g>
    <path id="рука_4" data-name="рука 4" class="cls-1" d="M420.47,365c11.43-2.84,23.63-10.63,27.61-29.28a14.12,14.12,0,0,1-6.23-6.38c-1.71-3.57,1.11-10,3.39-11.17,1.36-.7.91,6.77,2.76,6.29,1.41-.38,5-8.78,6.71-8.87,8.6-.46,15.25,11.07,13.06,15.13a25.12,25.12,0,0,1-6.08,7.41c.72,4,3.62,22.62-8.32,39.85a52.57,52.57,0,0,1-23,18.42"/>
    <g id="Персонаж">
      <path class="cls-1" d="M320.54,289.16a8.77,8.77,0,0,0,.68.56,7.4,7.4,0,0,0,6.91,1.33c3-1.07,4-4.13,4.55-5.69,1.22-3.68.9-9-1.51-9.86-1.88-.66-4.29,1.65-4.94,2.28a18.66,18.66,0,0,1-4.17-5.31c-1.82-3.51-.94-4.72-2.65-9.87-2.17-6.5-5-8.93-5.69-9.48-.32-.26-1.52-.83-3-1.9,0,0-1.38-1-2.47-1.92A21.5,21.5,0,0,1,302,239.08a19.55,19.55,0,0,1,1.89-13.27c1.82,2.51,4.76,5.67,9.11,6.83a15.85,15.85,0,0,0,4.93.38c11.4-.25,24.82,6.86,26.14,8a35.59,35.59,0,0,1,8,9.49c.81,1.43,5.12,16.71-1.48,31.47a32.21,32.21,0,0,1-9.1,11.76,13.19,13.19,0,0,0-2.28,5.69,13.44,13.44,0,0,0,1.14,7.59,45.79,45.79,0,0,1,44,29.2"/>
      <path class="cls-2" d="M320.54,289.78c.22.21.45.39.68.57a7.43,7.43,0,0,0,6.91,1.33c3-1.08,4-4.13,4.55-5.69,1.22-3.69.9-9-1.51-9.86-1.88-.66-4.29,1.65-4.94,2.27a18.52,18.52,0,0,1-4.17-5.31c-1.82-3.5-.94-4.72-2.65-9.86-2.17-6.5-5-8.93-5.69-9.48-.32-.26-1.52-.83-3-1.9,0,0-1.38-1-2.47-1.92A21.5,21.5,0,0,1,302,239.71a19.54,19.54,0,0,1,1.89-13.27c1.82,2.51,4.76,5.67,9.11,6.82a15.26,15.26,0,0,0,4.93.38c11.4-.24,24.82,6.87,26.14,8a35.61,35.61,0,0,1,8,9.48c.81,1.44,5.12,16.71-1.48,31.48a32.29,32.29,0,0,1-9.1,11.76c-.71,1-2.6,3-2.28,5.69.06.48-15.62,2.36-18.13-7.67Z"/>
      <path class="cls-1" d="M306.51,251.22c-1.28.81-3.27,2.11-5.69,3.8-2.58,1.8-3.14,2.3-4.17,2.65-1.53.52-9.5-.21-9.5-.21-.23.83-.46,1.42.77,4.38a10.22,10.22,0,0,0,5.31,5.32,22.7,22.7,0,0,0,17.45,23.13,3.93,3.93,0,0,1,.76,3.42,3.8,3.8,0,0,1-3.41,2.65"/>
      <path class="cls-1" d="M338,307.74a25.9,25.9,0,0,1-14.79,3.8c-1.85-.11-11.57-.69-15.93-7.59a12.56,12.56,0,0,1-1.14-2.28A52.73,52.73,0,0,0,291,304.33c-10.74,3.59-14.19,8.75-23.9,12.14a46.54,46.54,0,0,1-19.35,2.27,66.54,66.54,0,0,1-29.59-36.41,19.71,19.71,0,0,0,2.28-9.86c-.11-2.72-.28-7-3.41-9.11a7.73,7.73,0,0,0-4.94-1.14"/>
      <path class="cls-1" d="M214.33,268.29a16.23,16.23,0,0,1-2.65-6.07c-.64-3,0-6.44-1.52-6.82-1.15-.09-1.46-.07-3.42.75-4.7,2-7.09,7.3-7.2,11.76-.19,7.45,6,11.82,6.45,12.14,1.69,14.3,6.46,33.81,19.72,52,6.59,9,13.64,18.38,26.17,21.24,10.51,2.4,19.34-.8,23.91-2.88"/>
      <path class="cls-1" d="M276.92,343.78a159.17,159.17,0,0,0,4.17,75.49"/>
      <path class="cls-1" d="M360.37,268.73a10.91,10.91,0,0,1,2.66,6,18.19,18.19,0,0,1-1.9,11,132.4,132.4,0,0,0,14.8,17.07c10.19,9.92,15.53,12,20.86,19.35,3.55,4.92,7.73,13.12,8.34,26.55a20.53,20.53,0,0,1-12.51,17.45,31.63,31.63,0,0,1-25.8-9.86"/>
      <path class="cls-1" d="M359.61,335.81A217.25,217.25,0,0,0,363,419.65"/>
      <path class="cls-1" d="M246.57,318.37a41.13,41.13,0,0,0-.38,26.55"/>
      <path class="cls-1" d="M349,288a11.88,11.88,0,0,0,1.9,6.07c1.95,2.88,4.29,3.12,6.07,5.69,1,1.4,2,3.8,1.52,8"/>
    </g>
    <path class="cls-3" d="M163.62,338.76l1.88,3.76,5.65,1.26,4.39,5.64,1.88,7.52,14.92,4.46,23.51-12.69-60.69-35.28-47.8,17.45,54.24,49.7,13.31-8-5.64-9.41-7.53-3.13s-3.86-3.26-4.39-5.64c-.4-1.79,0-8.15,0-8.15a32,32,0,0,1,.63-5.65,9,9,0,0,1,2.51-3.13Z"/>
    <g id="доска">
      <polygon class="cls-1" points="121.02 301.3 256.44 287.26 256.44 171.19 121.02 168.91 121.02 301.3"/>
      <circle class="cls-1" cx="246.01" cy="180.86" r="2.47"/>
      <circle class="cls-1" cx="130.69" cy="180.86" r="2.47"/>
      <g>
        <line class="cls-1" x1="244.68" y1="217.84" x2="244.3" y2="267.16"/>
        <line class="cls-1" x1="241.83" y1="195.84" x2="170.21" y2="194.23"/>
        <line class="cls-1" x1="241.83" y1="203.66" x2="196.12" y2="203.66"/>
        <line class="cls-1" x1="232.91" y1="228.72" x2="199.68" y2="229.35"/>
        <line class="cls-1" x1="219.11" y1="239.38" x2="205.61" y2="239.6"/>
        <line class="cls-1" x1="231.78" y1="247.81" x2="212.22" y2="248.78"/>
        <line class="cls-1" x1="226.01" y1="255.05" x2="219.26" y2="255.4"/>
        <line class="cls-1" x1="198.02" y1="240.22" x2="178.36" y2="240.63"/>
        <line class="cls-1" x1="202.85" y1="249.07" x2="190.27" y2="249.41"/>
      </g>
      <g id="график">
        <path class="cls-3" d="M169.57,271.9l3-.38V250a.69.69,0,0,0-.69-.69h-1.65a.69.69,0,0,0-.69.69Z"/>
        <path class="cls-3" d="M162.36,272.66l3-.38V237.12a.69.69,0,0,0-.7-.69h-1.64a.69.69,0,0,0-.7.69Z"/>
        <path class="cls-3" d="M155.16,273.79l3-.38V243.57a.69.69,0,0,0-.69-.69h-1.65a.69.69,0,0,0-.69.69Z"/>
        <path class="cls-3" d="M148,274.55l3-.38V228a.69.69,0,0,0-.69-.69h-1.65a.69.69,0,0,0-.69.69Z"/>
        <path class="cls-3" d="M140.74,275.31l3-.38v-65.5a.7.7,0,0,0-.7-.69h-1.65a.69.69,0,0,0-.69.69Z"/>
      </g>
    </g>
    <g id="рука_3" data-name="рука 3">
      <path class="cls-1" d="M237.47,358.2a91.67,91.67,0,0,1-61.45-.76,12.71,12.71,0,0,0-.76-6.83c-1.88-4.57-8.56-7.19-9.48-7.59"/>
      <path class="cls-4" d="M250.37,385.89c-3.08,1.7-26.58,14.2-52.35,3.41-18.12-7.58-26.7-22.22-29.21-26.93A12.8,12.8,0,0,1,158.17,356c-2.09-3.48-.74-18.7,2.71-18.24,4.53.6,5.66,10.54,5.66,10.54"/>
      <line class="cls-5" x1="158.61" y1="345.03" x2="150.98" y2="344.54"/>
    </g>
    <g>
      <line class="cls-6" x1="157.05" y1="317.61" x2="116.08" y2="333.54"/>
      <line class="cls-6" x1="160.09" y1="319.5" x2="135.81" y2="328.99"/>
      <line class="cls-6" x1="165.78" y1="323.3" x2="124.81" y2="340.75"/>
      <line class="cls-6" x1="175.64" y1="328.99" x2="161.6" y2="335.44"/>
      <line class="cls-6" x1="157.05" y1="336.95" x2="139.98" y2="345.3"/>
      <line class="cls-6" x1="186.26" y1="335.44" x2="169.57" y2="343.4"/>
      <line class="cls-6" x1="172.23" y1="338.09" x2="165.02" y2="341.5"/>
      <line class="cls-6" x1="155.16" y1="346.06" x2="139.98" y2="354.02"/>
    </g>
    <line class="cls-1" x1="374.41" y1="249.33" x2="374.41" y2="249.33"/>
    <g id="телефон">
      <path class="cls-1" d="M369.35,260.05a2,2,0,0,0,0-2.84L360,247.84a2,2,0,0,0-2.83,0l-4.4,3.77a75.8,75.8,0,0,1,0,22.34Z"/>
      <path class="cls-1" d="M365.75,240a7.59,7.59,0,0,0-10.51-2.14"/>
      <path class="cls-1" d="M371.22,235.74a14,14,0,0,0-19.38-4"/>
    </g>
    <path class="cls-1" d="M462.71,343.39l19.79,5.54a3,3,0,0,0,3.16-1l19.2-23.84a3,3,0,0,0-1.71-4.85L408.8,298.86a3.08,3.08,0,0,0-1.94.22l-23,10.94"/>
    <line class="cls-1" x1="399.07" y1="325.57" x2="447.6" y2="339.16"/>
    <path class="cls-1" d="M463,348.48l19.16,5.34c2.09.57,4,.57,5.89-1.71l17.58-22.44c2.82-3.6,1.88-8.15,0-8.78"/>
    <line class="cls-1" x1="401.58" y1="330.92" x2="445.28" y2="343.06"/>
    <polygon class="cls-3" points="528.04 294.85 399.06 273.98 399.06 198.5 529.18 195.84 528.04 294.85"/>
    <path class="cls-1" d="M395.27,320.26l1.65.6,2.72.68a6.19,6.19,0,0,0,4.65-.66L427,307.58a.75.75,0,0,0-.22-1.39l-17-3.49a3.45,3.45,0,0,0-2.34.32l-19.82,9.85"/>
    <path class="cls-1" d="M462.19,338.35l.68.18,15.72,4.32a3.37,3.37,0,0,0,3.42-1l15.84-18.1a1.23,1.23,0,0,0-.66-2l-62.55-13.67a4.17,4.17,0,0,0-3,.5l-22.32,13.52a1,1,0,0,0,.26,1.85l35,9.2"/>
    <line class="cls-1" x1="419.93" y1="309.26" x2="405.51" y2="305.85"/>
    <line class="cls-1" x1="414.24" y1="312.68" x2="399.44" y2="309.26"/>
    <line class="cls-1" x1="407.79" y1="316.09" x2="393.38" y2="312.68"/>
    <g>
      <line class="cls-7" x1="510.97" y1="239.84" x2="496.93" y2="226.95"/>
      <circle class="cls-7" cx="493.33" cy="224.1" r="2.47"/>
      <circle class="cls-7" cx="478.54" cy="247.24" r="2.47"/>
      <circle class="cls-7" cx="469.05" cy="229.41" r="2.47"/>
      <circle class="cls-7" cx="427.33" cy="211.96" r="2.47"/>
      <circle class="cls-7" cx="445.15" cy="232.45" r="2.47"/>
      <line class="cls-7" x1="489.73" y1="226.57" x2="480.62" y2="243.64"/>
      <line class="cls-7" x1="473.79" y1="244.02" x2="470.38" y2="233.02"/>
      <line class="cls-7" x1="464.5" y1="229.6" x2="449.52" y2="232.26"/>
      <line class="cls-7" x1="441.17" y1="229.98" x2="429.79" y2="215.19"/>
      <line class="cls-7" x1="515.52" y1="262.22" x2="468.86" y2="257.29"/>
      <line class="cls-7" x1="515.52" y1="266.78" x2="458.62" y2="260.33"/>
      <line class="cls-7" x1="515.64" y1="271.33" x2="465.56" y2="264.88"/>
      <line class="cls-7" x1="515.37" y1="280.94" x2="449.37" y2="271.84"/>
    </g>
    <path class="cls-1" d="M101.67,233c-.48,13.93-3.58,32.13-16.31,45.89C67.7,298,46.91,291.92,34.91,310c-10.13,15.26-10,41.69,5.69,58s43.81,19,65.62,4.17"/>
    <path class="cls-8" d="M155.16,153c-1.52,1.51,7.2-30,45.89-41.73,62.53-19,109.68,32.37,120.74,44.18a28.48,28.48,0,0,0,6.84,5.37,134.48,134.48,0,0,0,38.95,14.56c39.25,8,71.4-4,84.59-9.87,1.7-1,22.87-13.4,44-3a43.9,43.9,0,0,1,19.35,19.35"/>
    <path class="cls-8" d="M405.65,421.92a108.27,108.27,0,0,1,44.52-8.14c25.41.79,47.66,5.24,55.18,7.75,7.52,1.88,29.44,12.28,52.67,2.89,30.93-12.49,61.51-44.42,61.45-87-.05-35.29-21.11-67.95-53.93-83.9"/>
    <path class="cls-8" d="M564.29,271.67a72.41,72.41,0,0,1,32.6,29.47c14.19,24.72,8.27,49.38,6.9,54.55"/>
    <path class="cls-8" d="M524.16,436.58a130.53,130.53,0,0,0-79-15.05"/>
    <path class="cls-8" d="M349.85,185.14a97.31,97.31,0,0,1-57.69-37.62A81.52,81.52,0,0,0,227,116.8"/>
    <path class="cls-8" d="M507.23,156.92a52.13,52.13,0,0,0-22.57-10c-21.77-3.83-38.55,8.09-42,10.66A72.54,72.54,0,0,1,425.72,167c-18.63,7.27-35.63,4.91-43.89,3.13"/>
    <path class="cls-1" d="M86.5,299.26c-2.53-.38-21.3-2.86-35.74,10.66a42.33,42.33,0,0,0-12.54,23.82c-.06,1.51-.35,15.32,10.66,23.83a27.88,27.88,0,0,0,16.93,5.64"/>
    <path class="cls-2" d="M404.71,345.34c-1.26,1.4-9.34.73-10.34,6-1.09,5.69,2.1,9.89,2.82,11.6,1.17-1.08,1.89-.64,3.13-2.51A27.13,27.13,0,0,0,404.71,345.34Z"/>
    <path class="cls-2" d="M446.37,385.61c-.9-.14-8.12-4.68-11.9-.94-4.11,4.08-3.86,9.35-4.23,11.17,1.58-.23,3.74-1.38,5.82-2.21C440.09,392,446.1,388,446.37,385.61Z"/>
    <path class="cls-2" d="M263,353.5s-2.77-4.82-8.16-5.65c-3.54-.54-7.77-1-10,1.88C247.33,354.12,263,353.5,263,353.5Z"/>
    <path class="cls-2" d="M250.11,385.49s-4.82-2.76-9.88-.76c-3.34,1.32-7.21,3.08-7.71,6.69C236.9,393.94,250.11,385.49,250.11,385.49Z"/>
  </g>
</svg>
