<?xml version="1.0" standalone="no"?>
<!DOCTYPE svg PUBLIC "-//W3C//DTD SVG 20010904//EN"
 "http://www.w3.org/TR/2001/REC-SVG-20010904/DTD/svg10.dtd">
<svg version="1.0" xmlns="http://www.w3.org/2000/svg"
 width="622.000000pt" height="642.000000pt" viewBox="0 0 622.000000 642.000000"
 preserveAspectRatio="xMidYMid meet">

<g transform="translate(0.000000,642.000000) scale(0.100000,-0.100000)"
fill="#000000" stroke="none">
<path d="M1899 6033 c-127 -134 -195 -255 -205 -364 -6 -67 -5 -73 61 -244 30
-79 29 -122 -3 -183 -11 -20 -34 -64 -52 -97 -29 -55 -31 -66 -27 -130 2 -38
12 -87 22 -107 27 -55 38 -46 13 10 -33 72 -30 164 7 227 73 128 77 137 73
200 -3 40 -15 85 -38 135 -47 103 -53 201 -18 286 32 79 85 157 165 244 36 39
63 73 61 75 -3 3 -29 -21 -59 -52z"/>
<path d="M5060 5788 c-76 -43 -191 -161 -224 -231 -63 -135 -70 -259 -22 -392
35 -96 87 -166 171 -230 112 -86 122 -133 51 -236 -84 -124 -91 -151 -76 -304
6 -60 14 -150 19 -200 l8 -90 2 84 c0 47 -4 135 -10 197 -16 152 -9 187 56
285 91 137 86 176 -33 270 -134 106 -188 205 -199 365 -7 97 7 165 50 249 38
73 142 179 220 224 31 18 57 34 57 37 0 9 -18 2 -70 -28z"/>
<path d="M3710 5739 c162 -19 245 -52 311 -127 46 -53 64 -107 79 -237 15
-124 41 -196 93 -253 50 -53 87 -73 192 -101 113 -31 204 -88 311 -195 113
-113 139 -163 138 -261 0 -58 -6 -81 -32 -135 -38 -77 -41 -135 -12 -194 25
-50 58 -91 67 -82 4 3 -3 16 -14 29 -66 71 -72 147 -23 257 63 140 39 238 -94
378 -112 118 -234 196 -346 222 -85 19 -121 37 -168 83 -54 53 -79 120 -98
266 -18 133 -36 182 -92 243 -70 75 -189 119 -317 117 l-70 -2 75 -8z"/>
<path d="M2326 5373 c-25 -80 -49 -123 -88 -160 -50 -48 -95 -63 -190 -63
-105 0 -154 -14 -194 -54 -36 -36 -64 -116 -64 -183 0 -69 17 -50 22 25 5 79
29 134 71 164 26 19 50 24 147 29 63 3 129 12 145 18 42 17 103 78 130 131 27
54 57 150 46 150 -4 0 -15 -26 -25 -57z"/>
<path d="M1552 4818 c-7 -7 -12 -34 -12 -60 0 -37 5 -51 20 -60 20 -13 20 -24
20 -765 l0 -753 -25 0 c-34 0 -73 -26 -90 -61 -9 -17 -26 -30 -45 -34 -43 -10
-73 -51 -65 -92 3 -18 2 -33 -3 -33 -6 0 -24 -13 -41 -29 l-31 -29 0 678 c0
676 0 678 21 683 17 5 20 12 17 54 l-3 48 -205 0 -205 0 0 -50 c0 -47 2 -50
28 -53 l27 -3 0 -1870 c0 -1253 3 -1869 10 -1869 7 0 9 292 8 880 l-3 880 143
0 142 0 0 -86 0 -85 -59 -55 c-75 -69 -101 -121 -101 -201 0 -109 63 -311 155
-493 l34 -68 -9 -149 c-14 -210 -51 -408 -110 -577 -22 -66 -24 -76 -11 -76
23 0 101 279 125 450 8 58 18 151 22 207 l7 102 31 -52 c65 -107 60 -102 174
-140 104 -35 401 -111 610 -158 85 -18 105 -20 112 -9 6 10 21 0 60 -40 l53
-54 -7 -163 c-5 -100 -4 -163 2 -163 9 0 15 48 28 228 6 89 8 92 33 99 66 16
161 105 161 151 1 41 22 62 63 62 34 0 37 -3 44 -37 4 -21 8 -140 8 -266 0
-125 3 -227 7 -227 17 0 21 64 16 290 l-5 237 191 6 c276 8 362 31 443 120 44
47 77 105 100 172 l13 40 -5 -60 c-3 -33 -8 -188 -11 -345 -6 -271 -1 -420 15
-420 4 0 7 138 8 308 0 253 5 355 27 579 27 280 32 403 18 403 -5 0 -14 -74
-21 -164 -6 -90 -15 -180 -18 -200 l-6 -37 -27 48 c-48 84 -148 165 -242 196
-15 5 -10 21 36 119 30 62 64 145 76 183 34 106 65 159 113 199 57 47 143 85
206 93 71 8 65 26 -7 21 -79 -6 -164 -48 -232 -117 -51 -51 -59 -66 -100 -181
-24 -69 -70 -178 -104 -244 -59 -117 -59 -119 -48 -163 12 -43 11 -47 -42
-159 -53 -111 -57 -115 -103 -136 -37 -16 -246 -66 -285 -68 -5 0 -8 20 -8 44
0 76 -57 386 -89 487 l-31 96 0 875 c0 835 1 876 18 891 17 16 106 17 1070 17
l1052 0 -5 -207 c-7 -275 -25 -1225 -25 -1344 l0 -94 -25 59 c-32 79 -55 101
-160 151 -160 78 -305 106 -405 80 -112 -30 -354 -17 -365 18 -2 7 -6 40 -8
74 l-5 61 52 -5 c41 -4 60 0 94 19 43 23 82 71 70 84 -4 3 -21 -10 -38 -30
-60 -68 -141 -69 -232 -1 -86 63 -138 169 -138 282 0 29 -4 53 -9 53 -5 0 -24
12 -42 28 l-33 27 48 5 48 5 25 70 c52 145 109 195 225 195 65 0 94 12 62 24
-58 22 -172 -8 -225 -60 l-37 -37 -27 27 c-51 51 -69 141 -45 228 l11 37 20
-20 c43 -43 101 -49 238 -23 163 31 315 -2 402 -86 83 -79 98 -194 48 -356
-21 -69 -20 -85 6 -64 23 19 45 5 45 -30 0 -65 -42 -106 -114 -114 -15 -1 -31
-7 -35 -12 -14 -15 -31 -111 -31 -177 0 -64 23 -174 40 -191 19 -19 21 4 4 60
-19 63 -22 206 -7 258 8 25 17 32 58 42 69 18 97 50 103 117 4 52 -7 78 -38
89 -7 2 -5 25 6 68 22 85 15 199 -14 256 -29 57 -103 119 -171 145 -80 30
-195 35 -330 15 -128 -20 -164 -14 -205 35 -14 16 -27 29 -29 29 -15 0 -39
-94 -40 -155 0 -78 15 -119 65 -171 28 -30 29 -33 15 -60 -8 -16 -20 -48 -26
-70 -12 -43 -27 -54 -82 -54 -14 0 -28 -3 -32 -6 -11 -11 22 -63 50 -77 22
-12 27 -22 28 -60 l2 -46 -71 -3 -71 -3 0 -165 0 -165 118 -3 117 -3 0 73 0
72 28 -26 c15 -14 37 -32 50 -40 20 -14 24 -26 28 -99 3 -46 8 -87 12 -90 35
-34 238 -47 352 -24 103 20 142 20 241 -5 176 -43 294 -111 327 -188 42 -98
102 -361 118 -515 3 -34 7 -66 8 -72 0 -5 -26 -12 -59 -16 -70 -9 -205 -56
-281 -99 -34 -19 -54 -26 -54 -18 -1 43 -30 291 -34 296 -17 16 -17 -23 0
-190 l19 -183 31 -9 c29 -9 33 -14 41 -68 l10 -59 -42 -25 c-23 -13 -46 -24
-51 -24 -6 0 -27 105 -47 232 -24 150 -42 238 -52 247 -13 13 -53 9 -342 -38
-180 -29 -333 -56 -340 -58 -24 -9 -25 -52 -4 -185 11 -73 18 -142 15 -154 -3
-12 1 -25 9 -33 13 -10 13 -16 0 -42 -26 -52 -4 -163 42 -219 6 -8 22 -75 34
-149 12 -74 27 -141 33 -148 16 -20 49 -17 372 36 358 59 345 53 328 163 -6
40 -8 76 -4 79 4 4 25 12 47 19 67 21 188 88 251 138 68 56 64 28 51 304 l-7
168 31 0 c31 0 31 0 27 49 l-3 48 140 7 c77 3 176 6 221 6 l81 0 6 -67 c4 -38
20 -250 38 -473 17 -223 33 -407 35 -409 2 -2 6 -2 8 0 4 3 -18 294 -62 854
-8 97 -7 101 26 192 18 52 32 101 30 111 -2 11 -16 19 -37 22 -28 4 -38 13
-61 55 l-28 50 -16 745 c-9 410 -19 806 -22 880 l-6 135 217 -5 217 -5 29 -33
29 -32 0 -1395 c0 -933 3 -1395 10 -1395 7 0 9 462 8 1400 l-3 1400 -38 37
-37 38 -215 3 -214 3 -3 130 c-2 72 1 134 5 138 5 5 7 30 5 57 l-3 49 -210 3
c-189 2 -211 1 -222 -15 -15 -20 -17 -79 -3 -88 6 -4 10 -62 10 -141 l0 -134
-120 0 -120 0 0 83 c0 71 3 84 20 95 27 17 26 50 -2 57 -13 3 -86 4 -163 3
l-140 -3 -3 -28 c-3 -22 1 -30 17 -34 19 -5 21 -13 21 -89 l0 -84 -290 0 -290
0 0 81 c0 72 3 83 23 99 18 15 20 22 11 37 -10 16 -27 18 -165 18 l-154 0 -3
-28 c-3 -22 1 -30 17 -34 19 -5 21 -13 21 -89 l0 -84 -55 0 -55 0 0 175 c0
149 2 175 15 175 10 0 15 10 15 30 l0 30 -162 -2 -163 -3 0 -25 c0 -18 6 -26
23 -28 22 -3 22 -5 22 -178 l0 -174 -211 0 -211 0 -29 -29 -29 -29 0 -849 -1
-848 -47 90 c-26 50 -66 109 -89 132 l-43 41 2 1158 3 1158 25 6 c22 5 25 12
28 54 2 33 -1 52 -10 57 -22 14 -382 11 -396 -3 -7 -7 -12 -29 -12 -49 0 -28
6 -42 25 -56 26 -18 26 -19 23 -157 l-3 -138 -77 86 -78 87 0 174 c0 162 1
175 18 175 10 0 23 5 30 12 16 16 16 100 0 116 -17 17 -379 17 -396 0z m388
-58 l0 -50 -190 0 -190 0 0 50 0 50 190 0 190 0 0 -50z m-60 -215 l0 -145
-140 0 -140 0 0 145 0 145 140 0 140 0 0 -145z m540 -25 l0 -40 -195 0 -195 0
0 40 0 40 195 0 195 0 0 -40z m-60 -165 l0 -105 -145 0 -145 0 0 105 0 105
145 0 145 0 0 -105z m-480 -85 l0 -110 -140 0 -140 0 0 110 0 110 140 0 140 0
0 -110z m-580 46 c0 -22 -6 -36 -16 -40 -21 -8 -313 -6 -344 3 -25 7 -36 30
-26 57 4 11 39 14 196 14 l190 0 0 -34z m750 -166 c0 -3 -34 -39 -75 -80 l-75
-74 0 159 1 160 74 -80 c41 -44 75 -82 75 -85z m-790 -310 l0 -420 -142 0
-143 0 0 420 0 420 143 0 142 0 0 -420z m1100 285 l0 -115 -145 0 -145 0 0
115 0 115 145 0 145 0 0 -115z m-480 -409 l0 -423 -45 -5 c-25 -3 -52 -12 -61
-19 -9 -7 -33 -12 -54 -10 -42 3 -93 -19 -109 -46 -7 -13 -10 129 -11 455 l0
472 140 0 140 0 0 -424z m179 273 l1 -140 -28 20 c-15 11 -49 40 -77 65 l-50
45 75 75 c41 42 76 76 77 76 1 0 2 -63 2 -141z m1236 21 c0 -13 -24 -15 -147
-18 -144 -2 -148 -2 -148 18 0 20 4 20 148 18 123 -3 147 -5 147 -18z m-935
-320 l0 -310 -145 0 -145 0 0 310 0 310 145 0 145 0 0 -310z m2765 260 l0 -45
-205 0 -205 0 -3 33 c-6 64 -13 63 210 60 l203 -3 0 -45z m-1865 -145 l0 -175
-107 0 -108 0 2 172 c1 95 3 174 3 176 0 1 47 2 105 2 l105 0 0 -175z m-1215
26 c0 -3 -33 -37 -72 -75 l-73 -69 0 137 0 138 73 -63 c39 -34 72 -65 72 -68z
m3065 -4 c0 -35 3 -146 7 -245 l6 -182 -201 0 -202 0 0 133 c0 72 3 183 7 245
l6 112 189 0 188 0 0 -63z m-1450 8 c0 -13 -23 -15 -150 -15 -127 0 -150 2
-150 15 0 13 23 15 150 15 127 0 150 -2 150 -15z m830 0 c0 -13 -23 -15 -150
-15 -127 0 -150 2 -150 15 0 13 23 15 150 15 127 0 150 -2 150 -15z m-2430
-161 l0 -135 -79 67 -78 66 74 69 c41 38 76 69 79 69 2 0 4 -61 4 -136z m1570
41 l0 -85 -110 0 -110 0 0 85 0 85 110 0 110 0 0 -85z m830 0 l0 -85 -110 0
-110 0 0 85 0 85 110 0 110 0 0 -85z m-2471 -134 l54 -49 -28 -34 c-15 -18
-47 -55 -71 -82 l-44 -48 0 141 c0 162 -6 158 89 72z m69 -275 l-3 -75 -70 54
c-38 30 -71 58 -73 63 -1 4 30 46 70 91 l73 83 3 -70 c2 -39 2 -105 0 -146z
m-798 -1 l0 -95 -142 0 -143 0 0 95 0 95 143 0 142 0 0 -95z m3860 18 c0 -38
3 -85 6 -105 l7 -38 -207 0 -206 0 0 105 0 105 200 0 200 0 0 -67z m-2760 -68
l0 -115 -145 0 -145 0 0 115 0 115 145 0 145 0 0 -115z m-367 5 l57 -44 -28
-29 -27 -28 -9 28 c-13 40 -43 81 -66 88 -13 4 -20 15 -20 31 0 29 -4 31 93
-46z m-94 -1 c18 -6 38 -24 46 -40 16 -30 32 -119 22 -119 -3 0 -29 5 -57 11
-54 11 -120 5 -120 -11 0 -6 28 -10 63 -10 111 -1 183 -53 221 -162 24 -68 30
-75 74 -89 56 -17 61 -27 29 -55 -15 -13 -35 -24 -43 -24 -17 0 -17 1 2 -74
23 -86 15 -174 -21 -229 -56 -86 -58 -87 -159 -87 -124 1 -164 11 -204 54 -35
39 -42 43 -42 22 0 -21 74 -83 106 -89 16 -3 53 -9 82 -12 l52 -7 1 -56 c4
-140 -13 -203 -64 -250 l-25 -24 50 -84 c28 -46 54 -84 58 -84 22 0 70 188 70
273 0 61 -9 85 -34 91 -11 3 10 3 47 0 85 -6 213 -45 294 -90 50 -28 69 -46
98 -94 56 -92 111 -217 139 -314 31 -105 75 -358 79 -448 l2 -63 -48 -3 c-39
-3 -53 1 -78 22 -34 29 -84 41 -133 32 l-34 -7 -7 138 c-18 385 -23 429 -41
410 -3 -3 -1 -85 5 -182 6 -96 11 -223 11 -280 0 -103 0 -104 -32 -138 l-33
-35 -159 44 c-87 23 -160 45 -163 47 -4 5 -33 348 -32 382 0 11 3 14 6 8 7
-18 42 -16 50 3 3 8 -1 22 -9 30 -13 14 -17 14 -31 -1 -19 -19 -18 -22 -41
130 -20 134 -36 205 -46 205 -4 0 -10 9 -13 20 -3 11 -14 20 -24 20 -63 0
-249 132 -241 171 4 20 -14 15 -158 -46 -70 -30 -130 -55 -131 -55 -2 0 -3
145 -3 322 l0 322 28 -27 c15 -15 33 -27 39 -27 18 0 25 -18 14 -37 -21 -38
31 -88 112 -108 23 -6 27 -12 27 -44 0 -46 32 -79 84 -88 33 -5 36 -9 36 -38
0 -17 -11 -54 -25 -80 -27 -54 -25 -68 5 -40 27 24 42 79 38 135 -3 45 -3 45
-45 51 -61 8 -76 24 -69 75 l5 42 -39 7 c-46 8 -103 43 -108 67 -2 8 4 23 13
31 20 21 19 37 -2 37 -32 0 -84 40 -99 76 -25 60 10 127 79 153 24 9 26 14 17
30 -25 47 0 91 50 91 24 0 30 6 40 35 13 38 52 65 94 65 17 0 38 13 60 37 30
33 40 38 83 38 26 1 64 9 83 18 42 20 57 20 99 6z m-639 -409 l0 -340 -142 0
-143 0 0 340 0 340 143 0 142 0 0 -340z m799 253 l1 -87 -35 34 c-43 41 -45
74 -8 112 15 15 30 28 34 28 4 0 8 -39 8 -87z m3071 -95 c0 -90 3 -187 6 -215
l7 -53 -217 0 -217 0 1 209 c1 115 4 212 7 215 4 3 98 6 210 6 l203 0 0 -162z
m-2770 -373 c0 -272 -2 -495 -4 -495 -2 0 -30 12 -62 26 -80 35 -196 64 -260
64 -52 0 -53 0 -59 34 -11 58 -4 70 50 83 56 14 78 36 121 121 31 61 36 141
15 220 -12 42 -12 42 29 80 22 22 40 46 40 54 0 9 -21 22 -54 33 -53 18 -54
20 -80 85 -18 47 -26 86 -26 129 l0 61 145 0 145 0 0 -495z m2784 -292 c4
-208 9 -402 13 -430 l5 -53 -225 0 c-170 0 -228 3 -234 13 -9 13 -7 475 3 705
l6 142 213 0 212 0 7 -377z m-1630 289 c9 -26 27 -64 41 -84 20 -30 25 -49 25
-102 l0 -66 -105 0 -105 0 0 150 0 150 64 0 64 0 16 -48z m-2254 -237 l0 -95
-142 0 -143 0 0 95 0 95 143 0 142 0 0 -95z m263 -217 c-13 -6 -23 -18 -23
-27 0 -28 83 -169 126 -213 42 -44 185 -148 203 -148 6 0 11 37 13 83 l3 82
22 -135 c22 -132 61 -556 52 -564 -6 -7 -212 53 -223 65 -5 5 -20 46 -33 91
-35 120 -84 227 -148 323 -56 85 -72 102 -82 91 -3 -3 18 -39 46 -81 69 -99
135 -240 162 -345 12 -47 27 -90 33 -97 9 -9 194 -64 544 -160 l53 -15 -7 -56
c-4 -32 -14 -82 -23 -112 -14 -44 -21 -54 -37 -52 -53 8 -503 119 -599 147
-170 50 -179 55 -225 127 -114 177 -229 461 -252 617 -10 69 -10 84 7 126 18
50 72 117 109 138 37 20 281 125 291 126 6 0 0 -5 -12 -11z m3665 -383 l22
-45 -240 0 c-132 0 -240 3 -240 8 0 4 -4 24 -9 45 l-9 37 227 0 227 0 22 -45z
m96 -63 c3 -5 -10 -51 -28 -103 l-34 -94 -225 -3 -225 -2 -11 62 c-6 35 -13
82 -17 106 l-7 42 271 0 c149 0 273 -4 276 -8z m-2036 -133 c64 -32 139 -105
171 -168 18 -34 18 -36 -4 -108 -24 -78 -67 -152 -112 -195 -70 -67 -189 -90
-486 -93 -161 -2 -232 -7 -242 -15 -8 -7 -15 -8 -15 -3 0 23 -57 64 -112 81
-51 16 -57 20 -44 31 15 13 22 41 10 41 -3 0 -17 -9 -31 -20 -28 -22 -41 -24
-63 -10 -12 8 -10 14 15 40 52 55 135 59 198 10 18 -15 40 -20 81 -20 80 0
311 47 377 76 l56 25 77 157 c42 87 76 163 76 170 0 22 -16 12 -33 -20 l-16
-33 0 43 c-1 53 12 54 97 11z m1458 -417 l7 -188 -63 -48 c-76 -56 -200 -118
-290 -143 -101 -28 -341 -24 -435 7 -83 27 -110 28 -190 10 -34 -7 -73 -10
-87 -7 -36 10 -60 74 -56 152 3 65 -2 62 81 64 49 1 48 21 -1 21 -21 0 -47 7
-58 16 -17 14 -13 15 63 11 84 -5 141 -28 162 -64 11 -21 130 -42 236 -42 103
-1 195 19 276 59 110 54 105 45 86 154 -9 51 -19 100 -22 108 -7 18 51 45 185
89 83 27 85 27 92 8 4 -11 11 -104 14 -207z m-516 198 c0 -5 -3 -10 -6 -10 -3
0 -126 -20 -274 -45 -273 -46 -309 -50 -296 -38 5 5 487 92 569 102 4 1 7 -3
7 -9z m-112 -66 c-3 -2 -99 -20 -214 -39 -115 -20 -216 -38 -226 -41 -9 -3
-19 -1 -22 5 -3 5 26 15 66 21 40 7 143 25 228 40 137 23 181 27 168 14z m322
-44 c0 -11 -7 -20 -15 -20 -27 0 -18 30 13 39 1 1 2 -8 2 -19z m-460 -69 c0
-14 -251 -53 -270 -41 -6 4 49 16 122 27 73 11 136 21 141 22 4 0 7 -3 7 -8z
m150 -29 c0 -11 -283 -52 -293 -42 -5 4 31 13 80 20 48 7 108 16 133 20 64 11
80 11 80 2z m180 -52 c0 -5 -6 -10 -14 -10 -8 0 -81 -9 -162 -20 -173 -23
-171 -23 -159 -11 6 5 73 17 150 26 77 10 142 19 144 21 9 8 41 3 41 -6z
m-1870 -35 c110 -27 133 -45 144 -115 5 -29 1 -40 -24 -68 -44 -48 -99 -82
-130 -82 -19 0 -42 15 -79 52 l-52 52 16 67 c8 38 15 80 15 94 0 28 -6 28 110
0z m1820 -15 c0 -5 -3 -10 -7 -10 -5 0 -51 -7 -103 -15 -103 -16 -157 -19
-147 -8 4 3 60 14 125 23 64 10 120 18 125 19 4 0 7 -3 7 -9z m76 -347 c-8 -8
-569 -103 -575 -97 -10 9 15 14 269 57 269 46 319 52 306 40z m20 -52 c-3 -4
-29 -11 -57 -15 -29 -4 -65 -10 -80 -13 -16 -3 -29 -1 -29 4 0 5 28 14 63 20
84 13 109 15 103 4z m-359 -68 c-8 -8 -220 -42 -226 -37 -9 9 9 14 90 28 95
16 146 19 136 9z"/>
<path d="M1921 1790 c-19 -11 -9 -45 14 -45 13 0 21 8 23 21 3 23 -17 37 -37
24z"/>
<path d="M1944 1515 c-8 -21 2 -45 19 -45 8 0 20 7 27 15 10 12 10 18 0 30 -7
8 -19 15 -27 15 -7 0 -16 -7 -19 -15z"/>
<path d="M2930 2995 l0 -115 85 0 85 0 0 115 0 115 -85 0 -85 0 0 -115z m150
3 l0 -103 -67 1 -68 2 -3 88 c-2 48 -1 93 2 101 4 9 26 13 71 13 l65 0 0 -102z"/>
<path d="M4427 3104 c-4 -4 -7 -54 -7 -111 l0 -103 80 0 81 0 -3 108 -3 107
-70 3 c-39 1 -74 0 -78 -4z m133 -109 l0 -95 -60 0 -60 0 0 95 0 95 60 0 60 0
0 -95z"/>
<path d="M5327 3104 c-4 -4 -7 -54 -7 -111 l0 -103 80 0 81 0 -3 108 -3 107
-70 3 c-39 1 -74 0 -78 -4z m143 -109 l0 -95 -65 0 -65 0 0 95 0 95 65 0 65 0
0 -95z"/>
<path d="M2894 2687 c-2 -7 -3 -82 -2 -167 l3 -155 118 -3 117 -3 0 171 0 170
-115 0 c-85 0 -117 -3 -121 -13z m226 -157 l0 -150 -105 0 -105 0 0 150 0 150
105 0 105 0 0 -150z"/>
<path d="M4380 2530 l0 -171 118 3 117 3 3 168 2 167 -120 0 -120 0 0 -170z
m220 0 l0 -150 -105 0 -105 0 0 150 0 150 105 0 105 0 0 -150z"/>
<path d="M2930 2015 l0 -115 85 0 85 0 0 115 0 115 -85 0 -85 0 0 -115z m150
-5 l0 -100 -70 0 -70 0 0 100 0 100 70 0 70 0 0 -100z"/>
<path d="M5320 2015 l0 -115 85 0 86 0 -3 113 -3 112 -82 3 -83 3 0 -116z
m150 -5 l0 -100 -70 0 -70 0 0 100 0 100 70 0 70 0 0 -100z"/>
</g>
</svg>
