<svg id="Слой_1" data-name="Слой 1" xmlns="http://www.w3.org/2000/svg" xmlns:xlink="http://www.w3.org/1999/xlink" viewBox="0 0 1726.57 419">
  <defs>
    <style>
      .cls-1 {
        fill: url(#Безымянный_градиент);
      }

      .cls-2 {
        fill: url(#Безымянный_градиент_2);
      }

      .cls-3 {
        fill: url(#Безымянный_градиент_3);
      }

      .cls-4 {
        fill: url(#Безымянный_градиент_4);
      }

      .cls-5 {
        fill: url(#Безымянный_градиент_5);
      }

      .cls-6 {
        fill: #0000b7;
      }
    </style>
    <linearGradient id="Безымянный_градиент" data-name="Безымянный градиент" x1="36.29" y1="100.8" x2="36.74" y2="61.12" gradientTransform="matrix(1, 0, 0, -1, 0, 488.85)" gradientUnits="userSpaceOnUse">
      <stop offset="0" stop-color="aqua"/>
      <stop offset="0.96" stop-color="#0000b7"/>
    </linearGradient>
    <linearGradient id="Безымянный_градиент_2" data-name="Безымянный градиент 2" x1="123.92" y1="188.87" x2="123.92" y2="80.67" xlink:href="#Безымянный_градиент"/>
    <linearGradient id="Безымянный_градиент_3" data-name="Безымянный градиент 3" x1="211.35" y1="284.57" x2="211.35" y2="70.8" gradientTransform="matrix(1, 0, 0, -1, 0.01, 488.85)" xlink:href="#Безымянный_градиент"/>
    <linearGradient id="Безымянный_градиент_4" data-name="Безымянный градиент 4" x1="301.15" y1="373.68" x2="301.15" y2="78.35" xlink:href="#Безымянный_градиент"/>
    <linearGradient id="Безымянный_градиент_5" data-name="Безымянный градиент 5" x1="390.97" y1="457.9" x2="390.97" y2="64.12" xlink:href="#Безымянный_градиент"/>
  </defs>
  <g>
    <g>
      <path class="cls-1" d="M4.22,424.59V385.1a4.87,4.87,0,0,1,4.87-4.87H63.88a4.87,4.87,0,0,1,4.87,4.87v39.49H4.22Z" transform="translate(-4.22 -6.44)"/>
      <path class="cls-2" d="M91.66,424.09V291.35a4.87,4.87,0,0,1,4.87-4.87h54.79a4.87,4.87,0,0,1,4.87,4.87V424.09H91.66Z" transform="translate(-4.22 -6.44)"/>
      <path class="cls-3" d="M179.1,423.58V197.73a4.87,4.87,0,0,1,4.87-4.87h54.79a4.87,4.87,0,0,1,4.87,4.87V423.58H179.1Z" transform="translate(-4.22 -6.44)"/>
      <path class="cls-4" d="M268.89,425.43V104.1a4.87,4.87,0,0,1,4.87-4.87h54.79a4.87,4.87,0,0,1,4.87,4.87V425.43H268.89Z" transform="translate(-4.22 -6.44)"/>
      <path class="cls-5" d="M358.71,424.93V11.31a4.87,4.87,0,0,1,4.87-4.87h54.79a4.87,4.87,0,0,1,4.87,4.87V424.93H358.71Z" transform="translate(-4.22 -6.44)"/>
    </g>
    <g>
      <path class="cls-6" d="M462.22,234.1V213.77H576V234.1H529.72V421.48H508.54V234.1Z" transform="translate(-4.22 -6.44)"/>
      <path class="cls-6" d="M732.06,370.51l16.66,8.75q-8.19,16.08-18.94,26a75.34,75.34,0,0,1-24.16,15,84.66,84.66,0,0,1-30.39,5.17q-37.59,0-58.8-24.64t-21.19-55.7A82.11,82.11,0,0,1,613.18,293q22.74-29.1,60.92-29.09,39.28,0,62.75,29.79,16.68,21,17,52.53H615.57q.55,26.76,17.1,43.88t40.86,17.12a65.89,65.89,0,0,0,22.83-4.08,60.55,60.55,0,0,0,18.88-10.83Q723,385.56,732.06,370.51Zm0-41.38q-4-15.81-11.52-25.27a54.44,54.44,0,0,0-20-15.25,61.12,61.12,0,0,0-26.15-5.79q-22.62,0-38.88,14.54-11.88,10.59-18,31.77Z" transform="translate(-4.22 -6.44)"/>
      <path class="cls-6" d="M790.66,267.85h19.77v27.58q11.85-15.81,26.26-23.66A64.47,64.47,0,0,1,868,263.94a54.5,54.5,0,0,1,30.57,8.75,52.17,52.17,0,0,1,19.7,23.58q6.35,14.84,6.35,46.18v79.07H904.89V348.2q0-26.55-2.2-35.45-3.45-15.24-13.18-22.94t-25.41-7.7A48.78,48.78,0,0,0,832,294a55.59,55.59,0,0,0-18.71,29.37q-2.82,11.45-2.82,41.8v56.34H790.66Z" transform="translate(-4.22 -6.44)"/>
      <path class="cls-6" d="M1120.37,208.55V421.48h-19.49v-26.4q-12.42,15.1-27.88,22.73a75.59,75.59,0,0,1-33.82,7.62q-32.63,0-55.71-23.65t-23.08-57.54q0-33.18,23.29-56.76t56.11-23.58a72.41,72.41,0,0,1,34.24,8q15.33,8,26.9,24.14V208.55Zm-79,74.41a59.58,59.58,0,0,0-52.68,30.89,62.23,62.23,0,0,0,.07,62.06A60.65,60.65,0,0,0,1011.11,399a58.54,58.54,0,0,0,30.11,8.25A61.88,61.88,0,0,0,1072,399a57.34,57.34,0,0,0,22.36-22.14,63.44,63.44,0,0,0,7.82-31.46q0-26.65-17.56-44.57T1041.37,283Z" transform="translate(-4.22 -6.44)"/>
      <path class="cls-6" d="M1294.47,370.51l16.66,8.75q-8.19,16.08-18.94,26a75.34,75.34,0,0,1-24.16,15q-13.42,5.16-30.39,5.15-37.59,0-58.79-24.64t-21.2-55.7a82,82,0,0,1,18-52.1q22.74-29.1,60.91-29.09,39.29,0,62.75,29.79,16.68,21,17,52.53H1178q.54,26.76,17.1,43.88t40.86,17.12a65.89,65.89,0,0,0,22.83-4.08,60.55,60.55,0,0,0,18.88-10.83Q1285.42,385.56,1294.47,370.51Zm0-41.38q-4-15.81-11.52-25.27a54.44,54.44,0,0,0-20-15.25,61.12,61.12,0,0,0-26.15-5.79q-22.62,0-38.88,14.54Q1186,308,1180,329.13Z" transform="translate(-4.22 -6.44)"/>
      <path class="cls-6" d="M1345.59,267.85h20.2V290.3q9-13.26,19.06-19.84a37.57,37.57,0,0,1,20.9-6.56q8.19,0,17.51,5.22L1413,285.78q-6.21-2.67-10.45-2.68-9.9,0-19.06,8.12t-14,25.21q-3.68,13.13-3.67,53.09v52h-20.18Z" transform="translate(-4.22 -6.44)"/>
      <path class="cls-6" d="M1541.18,208.55h4.21V353.43h25.13V373.2h-25.13v48.29h-20.6v-48.3h-99.4Zm-16.39,144.88V266.18l-61.55,87.25Z" transform="translate(-4.22 -6.44)"/>
      <path class="cls-6" d="M1701.45,208.55h4.21V353.43h25.13V373.2h-25.13v48.29H1685v-48.3h-99.41ZM1685,353.43V266.18l-61.54,87.25Z" transform="translate(-4.22 -6.44)"/>
    </g>
  </g>
</svg>
